<?xml version="1.0" encoding="utf-8"?>
<!-- Generator: Adobe Illustrator 27.5.0, SVG Export Plug-In . SVG Version: 6.00 Build 0)  -->
<svg version="1.1" xmlns="http://www.w3.org/2000/svg" xmlns:xlink="http://www.w3.org/1999/xlink" x="0px" y="0px"
	 viewBox="0 0 750 500" style="enable-background:new 0 0 750 500;" xml:space="preserve">
<g id="BACKGROUND">
	<rect style="fill:#2D2C34;" width="750" height="500"/>
</g>
<g id="OBJECT">
	<g>
		<defs>
			<rect id="SVGID_1_" width="750" height="500"/>
		</defs>
		<clipPath id="SVGID_00000087402681614363418740000014551584913373870270_">
			<use xlink:href="#SVGID_1_"  style="overflow:visible;"/>
		</clipPath>
		<g style="clip-path:url(#SVGID_00000087402681614363418740000014551584913373870270_);">
			<g>
				<g>
					<g>
						<path style="fill:#38353D;" d="M332.709,301.182h-364.9l9.03-203.86c0,0,0.02-0.01,0.06-0.03
							c14.61-8.61,29.98-17.45,46.92-18.25c16.97-0.79,35.75,9.41,38.49,26.17c13.91-7.21,32.77-2.76,41.99,9.9
							c24.33-8.42,49.53-16.97,75.19-14.86c25.66,2.1,52.07,17.82,58.27,42.81c3.37,13.59,0.48,27.86-2.42,41.56
							c15.72-5.72,34.03,12.74,28.2,28.41C306.129,214.222,341.679,259.522,332.709,301.182z"/>
						<path style="fill:#615F66;" d="M332.709,301.182c0,0,1.65-33.11-29.71-57.06c-31.37-23.96-58.74-12.55-58.74-12.55
							s7.41-29.65-0.57-36.5c-7.99-6.84-23.38-2.28-23.38-2.28s10.913-72.587-43.837-74.867
							c-54.75-2.28-83.913,20.117-83.913,20.117s-0.57-19.96-12.55-22.81c-11.8-2.81-30.25,12.67-30.78,13.11
							c0.19-0.76,7.68-30.32-14.84-37.63c-22.25-7.23-55.84,5.93-57.49,6.58c14.61-8.61,29.98-17.45,46.92-18.25
							c16.97-0.79,35.75,9.41,38.49,26.17c13.91-7.21,32.77-2.76,41.99,9.9c24.33-8.42,49.53-16.97,75.19-14.86
							c25.66,2.1,52.07,17.82,58.27,42.81c3.37,13.59,0.48,27.86-2.42,41.56c15.72-5.72,34.03,12.74,28.2,28.41
							C306.129,214.222,341.679,259.522,332.709,301.182z"/>
					</g>
					<g>
						<path style="fill:#38353D;" d="M834.378,77.572v244.63h-448.33c0,0-6.29-28.67,14.24-31.94l2.54-1.02
							c-1.04-15.57,11.51-30.83,26.98-32.83c-1.68-27.21,0.99-55.92,15.78-78.82c14.79-22.91,44.33-37.91,70.11-29.04
							c-6.64-13.17,8.95-30.84,22.84-25.88c0.45-25.71,16.14-50.58,39.15-62.05c23.02-11.48,52.32-9.04,73.12,6.08
							c18.72-29.97,57.32-43.75,92.37-39.21C778.229,32.022,809.659,52.312,834.378,77.572z"/>
					</g>
					<path style="fill:#615F66;" d="M834.378,77.572c0,0-65.181-44.717-112.53-36.177c-47.35,8.54-65.165,44.92-65.165,44.92
						s-36.709-26.339-70.859-13.919c-34.16,12.42-33.532,62.634-33.532,62.634s-40.047-5.057-25.307,29.103
						c0,0-40.217-11.681-63.507,17.039c-23.29,28.72-18.108,84.821-18.108,84.821s-35.777-11.435-37.328,36.695
						c0,0-17.935-3.236-21.994,19.514c0,0-6.29-28.67,14.24-31.94l2.54-1.02c-1.04-15.57,11.51-30.83,26.98-32.83
						c-1.68-27.21,0.99-55.92,15.78-78.82c14.79-22.91,44.33-37.91,70.11-29.04c-6.64-13.17,8.95-30.84,22.84-25.88
						c0.45-25.71,16.14-50.58,39.15-62.05c23.02-11.48,52.32-9.04,73.12,6.08c18.72-29.97,57.32-43.75,92.37-39.21
						C778.229,32.022,809.659,52.312,834.378,77.572z"/>
					<path style="fill:#615F66;" d="M68.449,178.594c0,0,28.539-23.65,51.867-16.084c23.328,7.566,18.284,32.154,18.284,32.154
						s15.131-11.979,32.154-5.044c17.023,6.935,7.566,34.046,7.566,34.046s18.914-3.783,25.85,10.088
						c6.935,13.87-13.24,35.307-13.24,35.307s5.412-20.421,1.87-28.684c-3.542-8.264-25.185-0.787-25.185-0.787
						s7.083-25.578-5.116-33.055c-12.199-7.477-34.236,9.838-34.236,9.838s3.802-35.568-10.625-41.713
						C96.389,165.608,68.449,178.594,68.449,178.594z"/>
					<path style="fill:#615F66;" d="M537.048,264.289c0,0-15.752-43.111,4.145-67.153c19.897-24.042,43.469-7.718,43.469-7.718
						s-10.461-26.462,8.615-37.538c19.077-11.077,42.462,5.538,42.462,5.538s-19.077-5.538-30.154,6.154
						c-11.077,11.692,7.385,52.308,7.385,52.308s-38.154-26.462-59.077-10.462S537.048,264.289,537.048,264.289z"/>
					<path style="fill:#615F66;" d="M650.933,135.395c0,0,7.862-29.213,27.707-34.624s26.358,12.329,26.358,12.329
						s4.399-18.231,18.883-16.966c14.484,1.266,20.787,19.092,20.787,19.092s-8.182-10.222-18.588-8.121
						c-10.406,2.101-15.861,30.996-15.861,30.996s-10.528-28.736-27.875-28.048S650.933,135.395,650.933,135.395z"/>
				</g>
			</g>
			<g>
				<g>
					<path style="fill:#9C7E35;" d="M311.485,298.272c-1.75,4.17-5,8.27-5,8.27s-178.89-3.34-178.36-3.86c0,0-5.97-4.22-1.4-9.13
						c4.46-4.81,9.59,1.45,9.82,1.74c-0.07-0.45-2.23-12.62,2.85-17.15c0.5-0.44,1.07-0.81,1.72-1.09
						c7.37-3.16,11.94,3.16,11.94,3.16s0.7-15.45,7.37-17.56c6.67-2.11,8.08,14.05,12.64,11.94c4.57-2.11-3.16-12.99,3.86-26.33
						c7.02-13.35,23.18-15.8,30.55-5.27c0,0,10.18-6.32,18.61-1.76c8.42,4.57,7.72,14.4,7.72,14.4s5.62-7.37,15.8-4.92
						c10.01,2.42,4.74,17.07,4.57,17.55c0.29-0.29,12.06-11.86,22.46-5.96c10.54,5.97,4.57,19.66,9.48,20.01
						c4.92,0.35,9.48-8.77,15.1-4.91c5.62,3.86,0.35,10.18,0.35,10.18s8.08-0.35,10.54,4.21
						C312.995,293.462,312.495,295.882,311.485,298.272z"/>
					<path style="fill:#875F0E;" d="M311.485,298.272c-1.75,4.17-5,8.27-5,8.27s-178.89-3.34-178.36-3.86c0,0-5.97-4.22-1.4-9.13
						c4.46-4.81,9.59,1.45,9.82,1.74c-0.07-0.45-2.23-12.62,2.85-17.15c0.7,1.21,1.69,2.32,2.75,3.19
						c4.62,3.8,10.76,5.69,16.72,5.15c5.01,6.53,14.5,8.31,22.45,6.19c7.96-2.12,14.66-7.41,20.7-13.01
						c1.89,3.42,7.27,4.16,10.01,1.38c1.5,4,5.82,6.19,9.98,7.16c9.28,2.17,19.49-0.09,26.98-5.99c1,3.49,4.44,5.9,8.02,6.5
						c3.58,0.6,7.25-0.34,10.6-1.74c0.91,8.84,9.84,15.11,18.67,16.08C294.855,303.992,303.335,301.162,311.485,298.272z"/>
				</g>
				<g>
					<path style="fill:#9C7E35;" d="M67.608,304.262h-88.02c0,0,2.47-9.24,6.77-10.16c4.31-0.92,8.31,0.62,8.31,0.62
						s-5.04-6.76-2.13-10.03c0.5-0.57,1.1-1.05,1.75-1.44c3.06-1.89,7.15-2.02,7.15-2.02s-0.21-7.43,4.62-12.98
						c0,0,3.69-6.46,14.16-4.31c10.46,2.15,7.08,12.62,7.08,12.62s3.38-2.46,7.69-0.62c4.31,1.85,0.92,9.85,0.92,9.85s4-4,9.85-0.61
						c0.92,0.53,1.6,1.14,2.12,1.8c2.81,3.58,0.68,8.64,2.5,10.2c2.15,1.85,6.77-2.77,12.31-0.62
						C68.229,298.722,67.608,304.262,67.608,304.262z"/>
					<path style="fill:#875F0E;" d="M67.608,304.262h-88.02c0,0,2.47-9.24,6.77-10.16c4.31-0.92,8.31,0.62,8.31,0.62
						s-5.04-6.76-2.13-10.03c0.5-0.57,1.1-1.05,1.75-1.44c0.02,1.54,0.6,3.09,1.65,4.22c1.52,1.63,3.96,2.35,6.12,1.79
						c0.25,0.56,0.35,1.19,0.26,1.79c4.47,2.7,10.91,1.44,14.03-2.76c0.92,2.52,4.45,3.63,6.64,2.08c-0.37,1.8,1.89,2.92,3.69,3.26
						c4.81,0.93,9.93,1.17,14.45-0.71c2.8-1.17,5.3-3.31,6.75-5.94c2.81,3.58,0.68,8.64,2.5,10.2c2.15,1.85,6.77-2.77,12.31-0.62
						C68.229,298.722,67.608,304.262,67.608,304.262z"/>
				</g>
				<g>
					<path style="fill:#9C7E35;" d="M767.717,304.262h-88.02c0,0,0.65-2.46,1.88-4.96c1.15-2.36,2.8-4.75,4.89-5.2
						c4.31-0.92,8.31,0.62,8.31,0.62s-5.05-6.76-2.14-10.03c2.91-3.27,8.9-3.46,8.9-3.46s-0.21-7.43,4.62-12.98
						c0,0,3.7-6.46,14.16-4.31c0.9,0.19,1.7,0.43,2.41,0.74c7.49,3.14,4.67,11.88,4.67,11.88s3.38-2.46,7.69-0.62
						c4.31,1.85,0.93,9.85,0.93,9.85s4-4,9.84-0.61c5.85,3.38,2.47,10.15,4.62,12c2.16,1.85,6.77-2.77,12.31-0.62
						C768.327,298.722,767.717,304.262,767.717,304.262z"/>
					<path style="fill:#875F0E;" d="M767.717,304.262h-88.02c0,0,0.65-2.46,1.88-4.96c6.12,0.68,12.37,0.11,18.23-1.75
						c3.24-1.02,6.45-2.49,8.76-4.98c2.3-2.49,3.54-6.19,2.38-9.38c6.84-3.48,11.28-10.91,11.78-18.51
						c7.49,3.14,4.67,11.88,4.67,11.88s3.38-2.46,7.69-0.62c4.31,1.85,0.93,9.85,0.93,9.85s4-4,9.84-0.61
						c5.85,3.38,2.47,10.15,4.62,12c2.16,1.85,6.77-2.77,12.31-0.62C768.327,298.722,767.717,304.262,767.717,304.262z"/>
				</g>
				<g>
					<path style="fill:#9C7E35;" d="M600.005,303.032h-198.02c-0.35-10.89,29.14-10.54,21.41-12.99c-7.72-2.46-7.72-7.38-3.86-9.83
						c3.86-2.46,10.18,5.26,15.1,3.51c4.91-1.76-15.45-7.38-7.72-11.94c2.27-1.34,4.34-1.74,6.21-1.64
						c4.49,0.22,7.92,3.29,10.64,3.04c3.86-0.35-2.11-13.69,4.21-17.2c6.16-3.42,12.65,4.15,12.98,4.54
						c-0.25-0.7-5.95-16.94,10.19-22.09c16.51-5.27,23.88,10.18,23.88,10.18s6.32-12.64,16.15-11.24
						c9.83,1.41,4.91,11.94,9.83,17.56c4.92,5.61,15.1-9.83,22.82-1.41c0.88,0.96,1.53,1.99,1.99,3.05
						c3.62,8.25-4.1,18.72-4.1,18.72s16.86-12.29,21.42-8.43c4.45,3.77-4.77,13.87-5.24,14.38c0.52-0.31,10.25-6.27,13.67-5.25
						c3.41,1.03,2.52,6.03,2.47,6.31c0.46-0.14,10.98-3.43,16.14-0.34c5.26,3.16,2.1,11.24,2.1,11.24
						C600.705,292.492,600.005,303.032,600.005,303.032z"/>
					<path style="fill:#875F0E;" d="M600.005,303.032h-198.02c-0.35-10.89,29.14-10.54,21.41-12.99c-7.72-2.46-7.72-7.38-3.86-9.83
						c3.86-2.46,10.18,5.26,15.1,3.51c4.91-1.76-15.45-7.38-7.72-11.94c2.27-1.34,4.34-1.74,6.21-1.64
						c1.77,6.35,9.54,11.01,15.84,8.38c-0.82,2.13,1.98,4.57,3.97,3.45c12.53,9.57,32.96,5.95,41.45-7.34
						c3.19,3.81,9.49,4.49,13.42,1.44c0.85,4.71,5.94,7.78,10.72,7.67c4.78-0.11,9.17-2.69,12.84-5.77
						c6.68-5.6,11.72-13.12,14.45-21.4c3.62,8.25-4.1,18.72-4.1,18.72s16.86-12.29,21.42-8.43c4.45,3.77-4.77,13.87-5.24,14.38
						c0.52-0.31,10.25-6.27,13.67-5.25c3.41,1.03,2.52,6.03,2.47,6.31c0.46-0.14,10.98-3.43,16.14-0.34
						c5.26,3.16,2.1,11.24,2.1,11.24C600.705,292.492,600.005,303.032,600.005,303.032z"/>
				</g>
			</g>
			<g>
				<g>
					<g>
						<g>
							<polygon style="fill:#41190D;" points="36.991,304.662 24.001,304.662 26.001,250.532 26.511,236.792 33.641,236.372 							
								"/>
							<polygon style="fill:#260B05;" points="36.991,304.662 32.261,304.662 30.831,251.092 27.901,249.392 26.001,250.532 
								26.511,236.792 33.641,236.372 							"/>
						</g>
						<path style="fill:#B56729;" d="M72.181,262.392c-20.22-0.62-44.17-19.59-44.17-19.59c-5.19,6.52-15.82,12.05-25.53,16.06
							c-10.65,4.4-20.19,6.95-20.19,6.95c4.36-5.91,19.6-32.34,19.6-32.34l-15.86,7.46c11.82-12.75,20.52-37.01,20.52-37.01
							l-11.46,7.15c12.44-19.59,18.93-42.92,18.93-42.92l-9.02,2.8c9.33-17.72,23.01-64.06,23.01-64.06
							c1.16,4.01,2.64,8.51,4.29,13.22c8.06,23.06,20.28,51.16,20.28,51.16l-8.08-2.18c4.66,16.79,19.9,38.87,19.9,38.87
							l-13.37-4.97c5.6,10.26,18.97,32.97,18.97,32.97l-15.24-5.29C59.431,241.872,72.181,262.392,72.181,262.392z"/>
						<path style="fill:#9F4C06;" d="M72.181,262.392c-20.22-0.62-44.17-19.59-44.17-19.59c-5.19,6.52-15.82,12.05-25.53,16.06
							c8.25-10.42,12.67-19.93,12.67-19.93l-3.81,1.66c11.67-11.9,18.1-22.86,18.1-22.86l-12.15,3.1l3.1-5.48l-7.86,3.57
							c14.07-14.29,20.52-31.13,20.71-31.66l-7.13,2.37l1.9-4.52l-9.29,4.28c6.91-11.19,11.2-30,11.2-30l-7.86,4.05l1.66-3.81
							l-0.9,0.4c5.12-15.59,7.93-29.54,9.48-39.92c8.06,23.06,20.28,51.16,20.28,51.16l-8.08-2.18c4.66,16.79,19.9,38.87,19.9,38.87
							l-13.37-4.97c5.6,10.26,18.97,32.97,18.97,32.97l-15.24-5.29C59.431,241.872,72.181,262.392,72.181,262.392z"/>
					</g>
					<g>
						<g>
							<polygon style="fill:#41190D;" points="87.327,302.508 75.937,302.508 75.087,241.998 73.577,239.368 65.707,225.658 
								67.457,223.608 74.977,234.128 74.767,219.518 82.657,218.348 							"/>
							<polygon style="fill:#260B05;" points="85.161,303.862 80.011,303.862 77.751,241.082 74.151,239.382 71.411,240.722 
								63.541,227.012 65.291,224.962 72.811,235.482 72.601,220.872 80.491,219.702 							"/>
						</g>
						<g>
							<path style="fill:#B56729;" d="M95.141,232.522l1.06,5.85c-7.98-1.59-24.48-9.04-24.48-9.04c-3.31,2.52-6.85,4.43-10.19,5.87
								c0,0,0,0.01-0.01,0.01c-7.96,3.44-14.81,4.23-14.81,4.23l2.66-7.72c-8.12,5.77-26.55,13.08-27.13,13.3
								c14.05-23.78,22.86-41.99,23.13-42.56l-16.76,11.17c10.65-14.64,28.81-50.19,28.81-50.19l-8.14,6.95l2.28-6.95l-11.81,9.94
								c9.72-15.89,21.06-44.9,21.06-44.9c-2.79,1.57-10.95,5.39-10.95,5.39c13.03-29.88,25.7-70.44,25.7-70.44
								c2.8,8.51,5.89,16.93,8.97,24.82c10.03,25.67,20,45.82,20,45.82l-16.05-7.99l23.69,45.24l-11.71-8.25
								c9.31,19.43,30.6,48.7,30.6,48.7l-22.35-12.51l24.21,43.9C117.491,241.042,95.141,232.522,95.141,232.522z"/>
							<path style="fill:#9F4C06;" d="M95.14,232.522l1.06,5.85c-5.59-1.11-15.36-5.1-20.71-7.4c-2.29-0.97-3.77-1.64-3.77-1.64
								c-3.31,2.52-6.85,4.43-10.19,5.87c10.24-12.09,17.07-26.75,17.07-26.75l-9.92,2.95l12.24-27l-6.75,2.95l8.01-18.77
								l-9.28,6.75l10.55-25.52l-5.7,3.16c2.53-5.48,5.27-28.9,5.27-28.9l-6.75,2.32l5.91-10.12l-6.12,1.9
								c2.69-7.94,6.16-20.94,8.47-29.92c9.87,25.27,19.69,45.19,19.99,45.81l-16.04-7.98l23.69,45.24l-11.71-8.25
								c3.07,6.4,7.43,13.86,11.9,21c9.12,14.53,18.7,27.7,18.7,27.7l-22.35-12.51l24.21,43.9
								C117.49,241.042,95.14,232.522,95.14,232.522z"/>
							<path style="fill:#843800;" d="M95.14,232.522l1.06,5.85c-5.59-1.11-15.36-5.1-20.71-7.4c18.81-19.29,30.69-36.7,36.87-46.9
								c9.12,14.53,18.7,27.7,18.7,27.7l-22.35-12.51l24.21,43.9C117.49,241.042,95.14,232.522,95.14,232.522z"/>
						</g>
					</g>
					<g>
						<g>
							<polygon style="fill:#41190D;" points="150.631,228.292 145.071,241.992 148.831,304.832 134.141,304.832 135.851,243.362 
								127.711,226.672 122.531,216.042 125.591,214.632 131.111,223.532 136.181,231.712 136.061,220.042 135.851,200.332 
								143.021,200.332 143.671,222.002 143.961,231.492 147.651,225.622 153.471,216.362 154.271,217.792 154.631,218.432 							
								"/>
							<polygon style="fill:#260B05;" points="125.591,214.632 131.111,223.532 127.711,226.672 122.531,216.042 							"/>
							<path style="fill:#260B05;" d="M143.021,200.332l0.65,21.67l-4.12-3.79c0,0-2.72,1.82-3.49,1.83l-0.21-19.71H143.021z"/>
							<polygon style="fill:#260B05;" points="154.631,218.432 150.631,228.292 147.651,225.622 153.471,216.362 							"/>
							<polygon style="fill:#260B05;" points="150.631,228.292 145.071,241.992 148.831,304.832 141.461,304.832 141.871,243.082 
								154.271,217.792 154.631,218.432 							"/>
						</g>
						<g>
							<path style="fill:#B56729;" d="M164.941,223.252l1.93,7.68c-12.3-4.23-27.67-16.52-27.67-16.52
								c-13.83,11.52-36.5,18.44-36.5,18.44l5-8.84c-14.6,9.22-41.88,13.45-41.88,13.45c17.67-16.9,36.5-39.96,36.5-39.96
								c-10.76,7.3-24.59,6.53-24.59,6.53c1.88-1.71,3.74-3.48,5.58-5.3c18.43-18.18,33.99-40.42,33.99-40.42
								c-6.53,4.61-14.21,6.53-14.21,6.53l0.76-3.84c-9.6,5.77-15.75,6.92-15.75,6.92c14.99-13.07,36.89-52.64,36.89-52.64
								c-7.3,5-15.76,5.38-15.76,5.38c11.53-11.53,23.06-38.04,23.06-38.04c-4.61,3.08-10.76,2.69-10.76,2.69
								c9.99-15.37,21.9-51.87,21.9-51.87c3.84,21.13,20.36,53.41,20.36,53.41c-6.15-1.15-11.14-5-11.14-5
								c3.07,12.68,19.98,39.19,19.98,39.19c-7.3-2.69-14.22-7.3-14.22-7.3c4.82,12.53,16.9,28.99,25.23,39.53
								c4.95,6.26,8.58,10.42,8.58,10.42l-16.13-4.99l1.53,3.84c-6.53-1.92-11.91-5-11.91-5c7.3,13.07,33.05,45.73,33.05,45.73
								l-13.84-2.69l2.31,3.45c-3.84-0.76-14.22-5.37-14.22-5.37c10.76,14.98,37.66,40.72,37.66,40.72
								C194.531,239.382,164.941,223.252,164.941,223.252z"/>
							<path style="fill:#9F4C06;" d="M164.941,223.252l1.93,7.68c-12.3-4.23-27.67-16.52-27.67-16.52
								c-13.83,11.52-36.5,18.44-36.5,18.44l5-8.84c-14.6,9.22-41.88,13.45-41.88,13.45c17.67-16.9,36.5-39.96,36.5-39.96
								c-10.76,7.3-24.59,6.53-24.59,6.53c1.88-1.71,3.74-3.48,5.58-5.3c14.72-5.12,31.57-19.86,31.57-19.86l14.98,10.54l1.66-9.99
								l14.42,6.38l-8.87-36.05l13.87,4.16l-1.67-9.71l12.76,6.93l2.5-6.65l19.11,8.79c4.95,6.26,8.58,10.42,8.58,10.42l-16.13-4.99
								l1.53,3.84c-6.53-1.92-11.91-5-11.91-5c7.3,13.07,33.05,45.73,33.05,45.73l-13.84-2.69l2.31,3.45
								c-3.84-0.76-14.22-5.37-14.22-5.37c10.76,14.98,37.66,40.72,37.66,40.72C194.531,239.382,164.941,223.252,164.941,223.252z"
								/>
						</g>
					</g>
				</g>
				<g>
					<g>
						<g>
							<polygon style="fill:#41190D;" points="713.009,304.662 725.999,304.662 723.999,250.532 723.489,236.792 716.359,236.372 
															"/>
							<polygon style="fill:#260B05;" points="713.009,304.662 717.739,304.662 719.169,251.092 722.099,249.392 723.999,250.532 
								723.489,236.792 716.359,236.372 							"/>
						</g>
						<path style="fill:#B56729;" d="M677.819,262.392c20.22-0.62,44.17-19.59,44.17-19.59c5.19,6.52,15.82,12.05,25.53,16.06
							c10.65,4.4,20.19,6.95,20.19,6.95c-4.36-5.91-19.6-32.34-19.6-32.34l15.86,7.46c-11.82-12.75-20.52-37.01-20.52-37.01
							l11.46,7.15c-12.44-19.59-18.93-42.92-18.93-42.92l9.02,2.8c-9.33-17.72-23.01-64.06-23.01-64.06
							c-1.16,4.01-2.64,8.51-4.29,13.22c-8.06,23.06-20.28,51.16-20.28,51.16l8.08-2.18c-4.66,16.79-19.9,38.87-19.9,38.87
							l13.37-4.97c-5.6,10.26-18.97,32.97-18.97,32.97l15.24-5.29C690.569,241.872,677.819,262.392,677.819,262.392z"/>
						<path style="fill:#9F4C06;" d="M677.819,262.392c20.22-0.62,44.17-19.59,44.17-19.59c5.19,6.52,15.82,12.05,25.53,16.06
							c-8.25-10.42-12.67-19.93-12.67-19.93l3.81,1.66c-11.67-11.9-18.1-22.86-18.1-22.86l12.15,3.1l-3.1-5.48l7.86,3.57
							c-14.07-14.29-20.52-31.13-20.71-31.66l7.13,2.37l-1.9-4.52l9.29,4.28c-6.91-11.19-11.2-30-11.2-30l7.86,4.05l-1.66-3.81
							l0.9,0.4c-5.12-15.59-7.93-29.54-9.48-39.92c-8.06,23.06-20.28,51.16-20.28,51.16l8.08-2.18
							c-4.66,16.79-19.9,38.87-19.9,38.87l13.37-4.97c-5.6,10.26-18.97,32.97-18.97,32.97l15.24-5.29
							C690.569,241.872,677.819,262.392,677.819,262.392z"/>
					</g>
					<g>
						<g>
							<polygon style="fill:#41190D;" points="664.839,303.862 676.229,303.862 677.079,243.352 678.589,240.722 686.459,227.012 
								684.709,224.962 677.189,235.482 677.399,220.872 669.509,219.702 							"/>
							<polygon style="fill:#260B05;" points="664.839,303.862 669.989,303.862 672.249,241.082 675.849,239.382 678.589,240.722 
								686.459,227.012 684.709,224.962 677.189,235.482 677.399,220.872 669.509,219.702 							"/>
						</g>
						<g>
							<path style="fill:#B56729;" d="M654.859,232.522l-1.06,5.85c7.98-1.59,24.48-9.04,24.48-9.04c3.31,2.52,6.85,4.43,10.19,5.87
								c0,0,0,0.01,0.01,0.01c7.96,3.44,14.81,4.23,14.81,4.23l-2.66-7.72c8.12,5.77,26.55,13.08,27.13,13.3
								c-14.05-23.78-22.86-41.99-23.13-42.56l16.76,11.17c-10.65-14.64-28.81-50.19-28.81-50.19l8.14,6.95l-2.28-6.95l11.81,9.94
								c-9.72-15.89-21.06-44.9-21.06-44.9c2.79,1.57,10.95,5.39,10.95,5.39c-13.03-29.88-25.7-70.44-25.7-70.44
								c-2.8,8.51-5.89,16.93-8.97,24.82c-10.03,25.67-20,45.82-20,45.82l16.05-7.99l-23.69,45.24l11.71-8.25
								c-9.31,19.43-30.6,48.7-30.6,48.7l22.35-12.51l-24.21,43.9C632.509,241.042,654.859,232.522,654.859,232.522z"/>
							<path style="fill:#9F4C06;" d="M688.47,235.202c-3.34-1.44-6.88-3.35-10.19-5.87c0,0-2.35,1.06-5.71,2.47
								c-5.54,2.32-13.8,5.58-18.77,6.57l1.06-5.85c0,0-22.35,8.52-37.78,10.64l23.08-41.86l1.13-2.04l-2.02,1.13l-20.33,11.38
								c0,0,6-8.24,13.01-18.88c6.22-9.41,13.22-20.7,17.59-29.82l-11.71,8.25l23.69-45.24l-16.04,7.98
								c0.3-0.62,10.12-20.54,19.99-45.81c2.31,8.98,5.78,21.98,8.47,29.92l-6.12-1.9l5.91,10.12l-6.75-2.32
								c0,0,2.74,23.42,5.27,28.9l-5.7-3.16l10.55,25.52l-9.28-6.75l8.01,18.77l-6.75-2.95l12.24,27l-9.92-2.95
								C671.4,208.452,678.23,223.112,688.47,235.202z"/>
							<path style="fill:#843800;" d="M639.27,200.392l-20.33,11.38c0,0,6-8.24,13.01-18.88
								C634.25,195.282,636.69,197.792,639.27,200.392z"/>
							<path style="fill:#843800;" d="M653.8,238.372l1.06-5.85c0,0-22.35,8.52-37.78,10.64l23.08-41.86
								c9.64,9.72,20.93,20.59,32.41,30.5C667.03,234.122,658.77,237.382,653.8,238.372z"/>
						</g>
					</g>
					<g>
						<g>
							<polygon style="fill:#41190D;" points="599.369,228.292 604.929,241.992 601.169,304.832 615.859,304.832 614.149,243.362 
								622.289,226.672 627.469,216.042 624.409,214.632 618.889,223.532 613.819,231.712 613.939,220.042 614.149,200.332 
								606.979,200.332 606.329,222.002 606.039,231.492 602.349,225.622 596.529,216.362 595.729,217.792 595.369,218.432 							
								"/>
							<polygon style="fill:#260B05;" points="624.409,214.632 618.889,223.532 622.289,226.672 627.469,216.042 							"/>
							<path style="fill:#260B05;" d="M606.979,200.332l-0.65,21.67l4.12-3.79c0,0,2.72,1.82,3.49,1.83l0.21-19.71H606.979z"/>
							<polygon style="fill:#260B05;" points="595.369,218.432 599.369,228.292 602.349,225.622 596.529,216.362 							"/>
							<polygon style="fill:#260B05;" points="599.369,228.292 604.929,241.992 601.169,304.832 608.539,304.832 608.129,243.082 
								595.729,217.792 595.369,218.432 							"/>
						</g>
						<g>
							<path style="fill:#B56729;" d="M585.059,223.252l-1.93,7.68c12.3-4.23,27.67-16.52,27.67-16.52
								c13.83,11.52,36.5,18.44,36.5,18.44l-5-8.84c14.6,9.22,41.88,13.45,41.88,13.45c-17.67-16.9-36.5-39.96-36.5-39.96
								c10.76,7.3,24.59,6.53,24.59,6.53c-1.88-1.71-3.74-3.48-5.58-5.3c-18.43-18.18-33.99-40.42-33.99-40.42
								c6.53,4.61,14.21,6.53,14.21,6.53l-0.76-3.84c9.6,5.77,15.75,6.92,15.75,6.92c-14.99-13.07-36.89-52.64-36.89-52.64
								c7.3,5,15.76,5.38,15.76,5.38c-11.53-11.53-23.06-38.04-23.06-38.04c4.61,3.08,10.76,2.69,10.76,2.69
								c-9.99-15.37-21.9-51.87-21.9-51.87c-3.84,21.13-20.36,53.41-20.36,53.41c6.15-1.15,11.14-5,11.14-5
								c-3.07,12.68-19.98,39.19-19.98,39.19c7.3-2.69,14.22-7.3,14.22-7.3c-4.82,12.53-16.9,28.99-25.23,39.53
								c-4.95,6.26-8.58,10.42-8.58,10.42l16.13-4.99l-1.53,3.84c6.53-1.92,11.91-5,11.91-5c-7.3,13.07-33.05,45.73-33.05,45.73
								l13.84-2.69l-2.31,3.45c3.84-0.76,14.22-5.37,14.22-5.37c-10.76,14.98-37.66,40.72-37.66,40.72
								C555.469,239.382,585.059,223.252,585.059,223.252z"/>
							<path style="fill:#9F4C06;" d="M585.059,223.252l-1.93,7.68c12.3-4.23,27.67-16.52,27.67-16.52
								c13.83,11.52,36.5,18.44,36.5,18.44l-5-8.84c14.6,9.22,41.88,13.45,41.88,13.45c-17.67-16.9-36.5-39.96-36.5-39.96
								c10.76,7.3,24.59,6.53,24.59,6.53c-1.88-1.71-3.74-3.48-5.58-5.3c-14.72-5.12-31.57-19.86-31.57-19.86l-14.98,10.54
								l-1.66-9.99l-14.42,6.38l8.87-36.05l-13.87,4.16l1.67-9.71l-12.76,6.93l-2.5-6.65l-19.11,8.79
								c-4.95,6.26-8.58,10.42-8.58,10.42l16.13-4.99l-1.53,3.84c6.53-1.92,11.91-5,11.91-5c-7.3,13.07-33.05,45.73-33.05,45.73
								l13.84-2.69l-2.31,3.45c3.84-0.76,14.22-5.37,14.22-5.37c-10.76,14.98-37.66,40.72-37.66,40.72
								C555.469,239.382,585.059,223.252,585.059,223.252z"/>
						</g>
					</g>
				</g>
			</g>
			<g>
				<rect x="-50.22" y="301.422" style="fill:#313620;" width="838.27" height="203.45"/>
				<path style="fill:#252816;" d="M788.05,301.422v203.45H-50.22v-203.45h94.64c-1.52,4.82-1.5,10.24,0.27,14.97
					c3.8,10.18,13.8,17.04,24.31,19.8c10.82,2.84,22.65,2.08,32.72,6.98c10.06,4.9,16.74,19.54,8.6,27.22
					c7.28,3.26,14.56,6.52,21.85,9.79c-4.37,4.85-2.14,13.12,2.88,17.3c5.03,4.17,11.84,5.32,18.31,6.26
					c110.87,16.16,224.06,16.27,334.96,0.35c5.29-0.76,11.02-1.79,14.57-5.78c3.15-3.53,3.91-8.72,7.08-12.23
					c3.58-3.97,9.38-4.93,14.73-5.15c23.3-0.93,46,7.77,69.31,8.65c23.31,0.89,50.56-10.3,54.82-33.23
					c0.75-4.05,0.77-8.37,2.82-11.94c4.25-7.36,14.41-7.8,22.79-9.2c18.88-3.15,35.28-16.61,43.49-33.79H788.05z"/>
				<g>
					<path style="fill:#15160C;" d="M171.096,467.263c42.866-4.336,61.252-31.824,1.506-36.949
						c-59.746-5.125-97.001-6.811-114.936,15.891C39.733,468.908,105.307,473.917,171.096,467.263z"/>
					<path style="fill:#15160C;" d="M235.655,463.548c64.819,2.549,102.178-27.296,19.646-26.137
						C172.768,438.569,161.864,460.646,235.655,463.548z"/>
					<path style="fill:#15160C;" d="M577.289,467.263c-42.866-4.336-61.252-31.824-1.506-36.949
						c59.746-5.125,97.001-6.811,114.936,15.891C708.653,468.908,643.079,473.917,577.289,467.263z"/>
					<path style="fill:#15160C;" d="M512.731,463.548c-64.819,2.549-102.178-27.296-19.646-26.137
						C575.618,438.569,586.522,460.646,512.731,463.548z"/>
				</g>
			</g>
			<g>
				<g>
					<g>
						<rect x="239.162" y="269.244" style="fill:#41190D;" width="12.704" height="45.37"/>
						<rect x="471.91" y="269.244" style="fill:#41190D;" width="12.704" height="45.37"/>
					</g>
					<g>
						<rect x="198.581" y="73.047" style="fill:#41190D;" width="326.614" height="203.528"/>
						<rect x="206.774" y="80.63" style="fill:#DFAE35;" width="310.228" height="188.363"/>
					</g>
				</g>
				
					<linearGradient id="SVGID_00000086674659719620714350000016260553340739384211_" gradientUnits="userSpaceOnUse" x1="379.5519" y1="90.1144" x2="379.5519" y2="316.986">
					<stop  offset="0" style="stop-color:#FFFFFF"/>
					<stop  offset="1" style="stop-color:#FFFFFF;stop-opacity:0"/>
				</linearGradient>
				<polygon style="opacity:0.5;fill:url(#SVGID_00000086674659719620714350000016260553340739384211_);" points="206.774,80.63 
					-18.684,354.672 -18.684,532.443 777.788,532.443 777.788,332.276 517.002,80.63 				"/>
			</g>
			<polygon style="fill:#9C7E35;" points="595.729,405.533 379.473,466.424 151.503,405.533 379.933,346.662 			"/>
			<g>
				<g>
					<g>
						<path style="fill:#51222F;" d="M362.222,365.355c0,0-2.441,8.472,2.298,13.067c4.738,4.595,12.492,2.872,12.492,2.872
							s11.774,2.441,16.369-1.149c4.595-3.59,0.431-14.646,0.431-14.646L362.222,365.355z"/>
						<g>
							<path style="fill:#C9936F;" d="M344.161,376.107c0,0-2.585,1.819-5.074,3.159c-2.489,1.34-0.67,1.627,3.925,1.819
								c4.595,0.191,7.275,0.479,7.371-3.063C350.478,374.48,344.161,376.107,344.161,376.107z"/>
							<g>
								<path style="fill:#223D52;" d="M366.965,326.012c0,0-0.09,2.46-0.33,6.03c-0.5,7.43-1.61,19.7-3.76,24.76
									c-3.19,7.5-12.56,22.31-12.56,22.31c-2.88-0.09-4.66-0.87-5.71-1.64c-1.08-0.78-1.42-1.54-1.42-1.54s5.82-12.19,9.38-20.82
									C356.125,346.492,364.085,326.442,366.965,326.012z"/>
								<path style="fill:#172C3A;" d="M366.635,332.042c-0.5,7.43-1.61,19.7-3.76,24.76c-3.19,7.5-12.56,22.31-12.56,22.31
									c-2.88-0.09-4.66-0.87-5.71-1.64c5.5-2.6,8.51-8.09,8.23-11.51c-0.3-3.84,1.82-4.96,4.96-8.9c3.14-3.95,0.4-9.01,1.11-11.44
									C359.365,344.042,363.675,336.872,366.635,332.042z"/>
							</g>
						</g>
						<g>
							<path style="fill:#C9936F;" d="M413.92,376.107c0,0,2.585,1.819,5.073,3.159c2.489,1.34,0.67,1.627-3.925,1.819
								c-4.595,0.191-7.275,0.479-7.371-3.063C407.602,374.48,413.92,376.107,413.92,376.107z"/>
							<g>
								<path style="fill:#223D52;" d="M391.115,326.012c0,0,0.09,2.46,0.33,6.03c0.5,7.43,1.61,19.7,3.76,24.76
									c3.19,7.5,12.56,22.31,12.56,22.31c2.88-0.09,4.66-0.87,5.71-1.64c1.08-0.78,1.42-1.54,1.42-1.54s-5.82-12.19-9.38-20.82
									C401.955,346.492,393.995,326.442,391.115,326.012z"/>
								<path style="fill:#172C3A;" d="M391.445,332.042c0.5,7.43,1.61,19.7,3.76,24.76c3.19,7.5,12.56,22.31,12.56,22.31
									c2.88-0.09,4.66-0.87,5.71-1.64c-5.5-2.6-8.51-8.09-8.23-11.51c0.3-3.84-1.82-4.96-4.96-8.9c-3.14-3.95-0.4-9.01-1.11-11.44
									C398.715,344.042,394.405,336.872,391.445,332.042z"/>
							</g>
						</g>
						<g>
							<path style="fill:#223D52;" d="M396.105,369.372c0,0-6.89,1.87-17.23,1.87c-10.34,0-18.52-2.87-18.52-2.87
								s-0.09-5.93,0.53-13.06c0.16-1.82,0.36-3.71,0.62-5.61c1.29-9.33,5.46-23.69,5.46-23.69s4.14-2.01,11.48-2.01
								c8.33,0,12.93,2.15,12.93,2.15s1.15,4.9,2.12,10.77c0.21,1.31,0.42,2.66,0.6,4.02
								C395.105,348.412,396.105,369.372,396.105,369.372z"/>
							<path style="fill:#172C3A;" d="M396.105,369.372c0,0-6.89,1.87-17.23,1.87c-10.34,0-18.52-2.87-18.52-2.87
								s-0.09-5.93,0.53-13.06c13.96,9.89,31.39,0.52,27.54,0.92c-4.09,0.42-11.01,0.71-2.68-4.8c4.41-2.91,6.36-9,7.75-14.51
								c0.21,1.31,0.42,2.66,0.6,4.02C395.105,348.412,396.105,369.372,396.105,369.372z"/>
						</g>
					</g>
					<g>
						<path style="fill:#3F281C;" d="M387.59,333.042c-3.71,8.08-11.41,6.96-11.41,6.96c4.14-2.56,5.27-5.53,5.37-5.82
							c-0.23,0.32-4.23,5.71-9.55,5.17c-5.47-0.55-8.16-7.05-6.03-10.48c0.28-0.46,0.61-0.97,0.98-1.52
							c2.32-3.6,5.85-9.05,6.17-13.79c0.37-5.47,1.56-10.46,5.47-11.6c7.04-2.04,10.18,5.11,10.96,13.3
							C390.2,321.982,389.26,329.402,387.59,333.042z"/>
						<path style="fill:#2D1A12;" d="M387.59,333.042c-3.71,8.08-11.41,6.96-11.41,6.96c4.14-2.56,5.27-5.53,5.37-5.82
							c-0.23,0.32-4.23,5.71-9.55,5.17c-5.47-0.55-8.16-7.05-6.03-10.48c0.28-0.46,0.61-0.97,0.98-1.52
							c0.34,2.4,1.51,5.32,5.04,6.56c6.3,2.21,11.1-8.91,11.37-9.54l-1.13,5.67c0,0,5.2-4.93,7.32-14.78
							C390.2,321.982,389.26,329.402,387.59,333.042z"/>
					</g>
				</g>
				<g>
					<path style="fill:#EAA37D;" d="M489.084,343.433c0,0-9.766-1.336-10.53-1.526c-0.763-0.191-2.29,6.203-2.195,6.966
						c0.08,0.638,2.094,5.279,2.752,6.783c0.126,0.289,0.404,0.48,0.719,0.498l0,0c0.583,0.032,1.019-0.527,0.845-1.085
						l-0.594-1.902l1.712,2.772c0.183,0.296,0.499,0.482,0.846,0.5l0,0c0.687,0.034,1.223-0.587,1.088-1.262l-0.402-2.01
						l1.568,2.665c0.214,0.364,0.591,0.603,1.011,0.641l0,0c0.768,0.07,1.429-0.535,1.429-1.305v-1.905l1.084,2.53
						c0.207,0.484,0.702,0.78,1.226,0.734l0,0c0.709-0.062,1.215-0.716,1.096-1.417l-0.925-5.473L489.084,343.433z"/>
					<g>
						<path style="fill:#EAA37D;" d="M552.307,302.436c-6.05-0.538-6.857,9.411-6.722,15.73c0.134,6.319,7.663,6.05,11.965,3.63
							c4.302-2.42,6.05-11.965,4.437-16.133C560.373,301.495,552.307,302.436,552.307,302.436z"/>
						<g>
							<path style="fill:#EAA37D;" d="M564.07,331.232l-9.7,0.63c0,0,0.02-1.9,0.05-4.1c0.04-2.88,0.08-6.26,0.08-6.48l6.32-4.42
								l1.23-0.86L564.07,331.232z"/>
						</g>
						<g>
							<path style="fill:#3F281C;" d="M569.35,308.192c-0.17,0.74-0.45,1.57-0.81,2.43c-1.57,3.75-4.47,8.15-4.47,8.15l-3.03,0.37
								l-2.76-4.9l-4.03-0.13l0.12-4.53c-3.65-0.51-2.89-3.78-2.89-3.78s-7.93,0.88-11.46-4.15c-1.4-1.99-2.06-4.3-2.08-6.17
								c-0.05-2.85,1.38-4.67,3.97-2.77c4.28,3.15,6.42,4.03,14.98,3.27c8.56-0.75,7.93,5.67,7.93,5.67
								C568.22,301.772,570.23,304.292,569.35,308.192z"/>
							<path style="fill:#2D1A12;" d="M568.54,310.622c-1.57,3.75-4.47,8.15-4.47,8.15l-3.03,0.37l-2.76-4.9l-4.03-0.13l0.12-4.53
								c-3.65-0.51-2.89-3.78-2.89-3.78s-7.93,0.88-11.46-4.15c-1.4-1.99-2.06-4.3-2.08-6.17c3.34,4.27,9.85,8,17.89,7.38
								c0,0,1.66,5.15,8.14,4.49C563.97,307.352,564.79,310.332,568.54,310.622z"/>
						</g>
						<path style="fill:#EAA37D;" d="M555.936,312.519c0,0,1.294-3.59,4.521-2.514c3.227,1.076,1.395,8.161-5.059,8.026
							L555.936,312.519z"/>
					</g>
					<g>
						<path style="fill:#EAA37D;" d="M577.986,407.284c0,0-2.173,5.192-1.57,6.641c0.604,1.449,4.709,0.845,6.762,0.845
							c2.053,0,6.762,1.449,9.056-0.241c2.294-1.69-5.554-6.641-5.554-6.641L577.986,407.284z"/>
						<path style="fill:#DB9F35;" d="M578.534,331.243c5.681,1.062,8.299,20.729,8.714,31.096
							c0.415,10.367,0.622,46.029,0.622,46.029l-10.781,0.415c0,0-4.354-41.674-5.391-49.968S568.576,329.382,578.534,331.243z"/>
					</g>
					<g>
						<g>
							<path style="fill:#EAA37D;" d="M486.452,401.868c0.141-0.19,4.527-6.559,4.527-6.559l5.052,3.941l-5.677,7.002
								L486.452,401.868z"/>
							<path style="fill:#51222F;" d="M470.299,413.507l23.317-2.07c-0.046-0.756-0.109-1.521-0.175-2.271
								c-0.257-2.83-0.62-5.451-0.801-6.661c-1.092-0.129-2.907-0.502-4.892-1.59c-0.612-0.334-1.234-0.735-1.865-1.219
								c0,0-2.099,2.457-4.858,4.521c-0.987,0.748-2.059,1.441-3.151,1.947c-4.124,1.918-5.862,1.889-6.946,3.086
								c-0.425,0.468-0.615,1.229-0.685,1.975C470.13,412.379,470.299,413.507,470.299,413.507z"/>
							<path style="fill:#2B111A;" d="M481.027,404.217l0.561,0.461c0.676,0.553,1.647,0.559,2.336,0.016
								c1.54-1.218,3.163-3.015,3.824-3.779c-0.61-0.331-1.235-0.735-1.863-1.218C485.886,399.696,483.783,402.153,481.027,404.217z
								"/>
							<path style="fill:#2B111A;" d="M470.299,413.507l23.317-2.07c-0.046-0.756-0.109-1.521-0.175-2.271l-23.197,2.059
								C470.13,412.379,470.299,413.507,470.299,413.507z"/>
						</g>
						<path style="fill:#172C3A;" d="M489.252,396.21c0,0,27.755-42.505,31.754-45.918c3.999-3.413,12.897-1.621,14.952-0.203
							c2.054,1.418,28.357,44.674,28.357,44.674s-3.905,12.114-8.627,16.42c-4.722,4.305-14.232,4.483-19.686,1.787
							c-5.454-2.696-11.95-38.768-11.95-38.768l-25.924,28.029L489.252,396.21z"/>
					</g>
					<g>
						<g>
							<path style="fill:#EAA37D;" d="M464.884,404.125c0.141-0.19,4.527-6.559,4.527-6.559l5.052,3.941l-5.677,7.002
								L464.884,404.125z"/>
							<path style="fill:#51222F;" d="M448.732,415.763l23.317-2.07c-0.046-0.756-0.109-1.521-0.175-2.271
								c-0.257-2.83-0.62-5.451-0.801-6.661c-1.091-0.129-2.908-0.502-4.892-1.59c-0.612-0.334-1.234-0.735-1.865-1.219
								c0,0-2.099,2.457-4.858,4.521c-0.987,0.748-2.059,1.441-3.151,1.947c-4.124,1.918-5.862,1.889-6.946,3.086
								c-0.425,0.468-0.614,1.229-0.685,1.974C448.563,414.635,448.732,415.763,448.732,415.763z"/>
							<path style="fill:#2B111A;" d="M459.46,406.474l0.561,0.461c0.676,0.553,1.646,0.559,2.336,0.016
								c1.54-1.218,3.163-3.015,3.824-3.779c-0.61-0.331-1.235-0.735-1.863-1.218C464.319,401.953,462.216,404.409,459.46,406.474z"
								/>
							<path style="fill:#2B111A;" d="M448.732,415.763l23.317-2.07c-0.046-0.756-0.109-1.521-0.175-2.271l-23.197,2.059
								C448.563,414.635,448.732,415.763,448.732,415.763z"/>
						</g>
						<path style="fill:#223D52;" d="M467.685,398.466c0,0,27.755-42.505,31.754-45.918c3.999-3.413,12.897-1.621,14.951-0.203
							c2.054,1.418,32.731,44.216,32.731,44.216s-2.812,12.03-7.534,16.335c-4.722,4.305-16.378,4.678-21.833,1.982
							c-5.455-2.696-15.271-38.42-15.271-38.42l-25.924,28.029L467.685,398.466z"/>
					</g>
					<path style="fill:#DB9F35;" d="M578.534,331.243c-6.364-1.414-29.699-1.65-29.699-1.65s-11.785,14.614-13.2,18.621
						c-1.414,4.007-0.707,11.785-0.707,11.785l-16.028,20.506c0,0,3.771,16.735,11.785,20.506
						c8.014,3.771,32.527,0.943,32.527,0.943s13.435-27.577,17.678-45.962C585.134,337.608,578.534,331.243,578.534,331.243z"/>
					<path style="fill:#DB9F35;" d="M556.043,331.642c-6.919-5.466-17.56-0.636-26.766,3.611c-9.206,4.247-20.278,7.76-20.278,7.76
						l-21.397-0.452c0,0-9.842,3.503-0.781,10.628c0,0,26.974,3.616,32.164,3.542c5.19-0.073,27.023-11.987,32.269-16.171
						C556.5,336.376,556.043,331.642,556.043,331.642z"/>
				</g>
				<g>
					<g>
						<g>
							<polygon style="fill:#D38A6A;" points="234.933,384.077 236.686,394.892 244.77,394.892 243.965,383.482 							"/>
							<path style="fill:#823A04;" d="M234.276,393.846l11.098-2.114c0,0,4.745,6.54,11.718,10.43
								c2.442,1.362,4.156,3.733,4.665,6.482l0,0v3.347h-28.538C233.219,411.991,233.748,398.074,234.276,393.846z"/>
							<g>
								<path style="fill:#CEBFAF;" d="M248.56,386.822h-17.63l-2.86-13.61c0,0-10.74,29.52-16.84,34.4
									c-6.1,4.88-16.59,5.61-25.13,2.68c-8.54-2.92-11.22-15.86-11.22-15.86s5.79-6.76,13.53-15.64
									c14.51-16.64,35.9-40.74,38.93-41.7c4.63-1.46,14.88-1.46,16.59,3.17c0.44,1.2,0.96,4.91,1.5,9.74
									C246.96,363.812,248.56,386.822,248.56,386.822z"/>
								<path style="fill:#A89A8E;" d="M248.56,386.822h-17.63l-2.86-13.61c0,0-10.74,29.52-16.84,34.4
									c-6.1,4.88-16.59,5.61-25.13,2.68c-8.54-2.92-11.22-15.86-11.22-15.86s5.79-6.76,13.53-15.64c1.24-0.27,2-0.44,2-0.44
									s3.37,25.53,9.7,23.21c6.33-2.32,35.44-56.54,40.29-55.69c1.17,0.2,2.97,1.81,5.03,4.13
									C246.96,363.812,248.56,386.822,248.56,386.822z"/>
							</g>
						</g>
						<g>
							<polygon style="fill:#D38A6A;" points="245.383,384.077 247.136,394.892 255.22,394.892 254.416,383.482 							"/>
							<path style="fill:#9F4C06;" d="M244.727,393.846l11.098-2.114c0,0,4.745,6.54,11.717,10.43
								c2.442,1.362,4.156,3.733,4.665,6.482l0,0v3.347H243.67C243.67,411.991,244.198,398.074,244.727,393.846z"/>
							<g>
								<path style="fill:#ECE0D2;" d="M259.01,386.822h-17.63l-2.86-13.61c0,0-10.74,29.52-16.84,34.4
									c-6.1,4.88-16.59,5.61-25.13,2.68c-8.54-2.92-11.22-15.86-11.22-15.86s19.49-22.77,34.79-39.62
									c8.67-9.54,15.99-17.18,17.67-17.72c4.63-1.46,14.88-1.46,16.59,3.17c1.11,3.02,2.74,21.89,3.74,34.66
									C258.66,381.742,259.01,386.822,259.01,386.822z"/>
								<path style="fill:#CEBFAF;" d="M259.01,386.822h-17.63l-2.86-13.61c0,0-10.74,29.52-16.84,34.4
									c-6.1,4.88-16.59,5.61-25.13,2.68c-8.54-2.92-11.22-15.86-11.22-15.86s19.49-22.77,34.79-39.62
									c5.83,5.14,12.48,11.94,12.48,11.94s14.55-20.04,17.29-20.67c1.85-0.43,2.94,16.41,8.23,28.84
									C258.66,381.742,259.01,386.822,259.01,386.822z"/>
							</g>
						</g>
					</g>
					<g>
						<g>
							<path style="fill:#9C7E35;" d="M198.36,301.582c-5.59,0.47-7.57-4.95-4.67-7.72c0.77-0.74,1.9-1.3,3.4-1.5
								c3.26-0.44,4.94,1.34,5.29,3.45C202.8,298.342,201.32,301.332,198.36,301.582z"/>
							<path style="fill:#875F0E;" d="M198.36,301.582c-5.59,0.47-7.57-4.95-4.67-7.72c1.07,3.97,5.2,4.42,8.69,1.95
								C202.8,298.342,201.32,301.332,198.36,301.582z"/>
						</g>
						<g>
							<polygon style="fill:#EAA37D;" points="210.71,330.162 201.93,328.652 204.19,317.362 204.42,317.372 210.46,317.742 
								210.64,326.572 							"/>
							<path style="fill:#3F281C;" d="M210.64,326.572c-3.78-2.31-5.47-6.08-6.22-9.2l6.04,0.37L210.64,326.572z"/>
						</g>
						<path style="fill:#EAA37D;" d="M203.811,313.352c0,0,1.682,6.83,9.659,6.523c6.523-0.251,6.523-18.189,1.505-19.317
							C209.958,299.429,201.93,303.694,203.811,313.352z"/>
						<g>
							<path style="fill:#9C7E35;" d="M210.33,305.322c0.51,3.51-2.5,4.77-2.5,4.77v1.88h-3.27c0,0,5.77,14.17-5.01,15.81
								c-10.79,1.63-13.93-5.65-9.16-9.79c0.1-0.09,0.21-0.18,0.31-0.28c4.56-4.04,6.84-8.12,6.84-8.12s-1.38-8.28,3.76-11.67
								c5.15-3.39,11.04-0.12,11.04-0.12s6.45-0.8,7.97,2.03c0.18,0.35,0.3,0.76,0.31,1.23
								C220.75,305.322,210.33,305.322,210.33,305.322z"/>
							<path style="fill:#875F0E;" d="M210.33,305.322c0.51,3.51-2.5,4.77-2.5,4.77v1.88h-3.27c0,0,5.77,14.17-5.01,15.81
								c-10.79,1.63-13.93-5.65-9.16-9.79c0.1-0.09,0.21-0.18,0.31-0.28c1.3,0.98,3.32,1.02,3.32,1.02s-1.22,3.89,3.16,3.89
								c4.38,0,5.96-4.14,5.83-11.19c-0.12-7.05-3.16-9.36-3.16-9.36s10.12,3.81,20.46-2.24c0.18,0.35,0.3,0.76,0.31,1.23
								C220.75,305.322,210.33,305.322,210.33,305.322z"/>
						</g>
						<path style="fill:#EAA37D;" d="M206.069,309.213c0,0-1.937-3.206-4.516-0.627c-2.007,2.007,0.251,7.526,5.018,6.146
							L206.069,309.213z"/>
					</g>
					<g>
						<path style="fill:#9F4C06;" d="M215.64,353.642c-0.43,15.57-1.94,42.58-1.94,42.58s-2.6,1.3-15.56,3.24
							c-12.97,1.95-26.37-3.67-26.37-3.67s-0.31-2.3,0.08-9.51c0.17-3.16,0.47-7.26,1-12.53c1.73-17.3,12.76-48.26,29.39-47.72
							c2.05,0.07,3.79,0.39,5.28,0.96C215.75,330.112,216,340.462,215.64,353.642z"/>
						<path style="fill:#823A04;" d="M215.64,353.642c-0.43,15.57-1.94,42.58-1.94,42.58s-2.6,1.3-15.56,3.24
							c-12.97,1.95-26.37-3.67-26.37-3.67s-0.31-2.3,0.08-9.51c19.54,6.77,41.85,2.11,32.74-5.7c-9.43-8.08-12.13-19.53-8.54-17.06
							c3.6,2.47,12.58,10.1,10.33-1.57c-2.24-11.68-7.86-24.03-2.47-33.24l3.61-1.72C215.75,330.112,216,340.462,215.64,353.642z"/>
					</g>
					<g>
						<g>
							<path style="fill:#EAA37D;" d="M260.51,348.272c0.02,1.1-0.12,2.14-0.35,2.83c-0.53,1.6-2.57,3.29-2.57,3.29
								s-18.54,16.23-25.08,19.3c-6.55,3.08-8.51-1.16-8.51-1.16l-5.65-10.71l11.91-4.16l5.15-1.91l19.98-7.41l-0.57-5.52
								c0,0,3.47-0.26,4.68,1.47C260.18,345.282,260.48,346.822,260.51,348.272z"/>
							<path style="fill:#D38A6A;" d="M260.51,348.303c0.02,1.1-0.12,2.14-0.35,2.83c-0.53,1.6-2.57,3.29-2.57,3.29
								s-18.54,16.23-25.08,19.3c-6.55,3.08-8.51-1.16-8.51-1.16l-5.65-10.71l11.91-4.16l5.15-1.91c-0.37,2.33-1.23,4.99-3.08,6.93
								C228.35,366.884,252.37,357.423,260.51,348.303z"/>
						</g>
						<path style="fill:#9F4C06;" d="M203.355,327.689c-5.115,2.611,12.784,37.156,12.784,37.156s12.49-1.152,17.302-7.864
							c0,0-10.636-19.607-16.682-26.028C210.714,324.532,203.355,327.689,203.355,327.689z"/>
					</g>
				</g>
				<g>
					<g>
						<g>
							<g>
								<polygon style="fill:#C9936F;" points="283.135,328.162 282.525,335.982 282.455,336.842 274.455,335.472 274.965,326.972 
									275.665,327.072 								"/>
								<path style="fill:#3F281C;" d="M283.135,328.162l-0.61,7.82c-3.97-1.78-5.92-5.83-6.86-8.91L283.135,328.162z"/>
							</g>
							<g>
								<path style="fill:#C9936F;" d="M289.285,331.712c-0.2,0.54-1.15,0.81-2.49,0.84c-2.05,0.04-5.04-0.49-7.72-1.52
									c-4.42-1.71-5.28-8.34-5.28-8.34c-0.75-7.1,2.23-11.17,5.87-12.75c3.76-1.63,8.23-0.58,9.96,2.54
									C293.025,318.602,289.795,330.342,289.285,331.712z"/>
								<path style="fill:#BA7E5D;" d="M286.795,332.552c-2.05,0.04-5.04-0.49-7.72-1.52c-4.42-1.71-5.28-8.34-5.28-8.34
									c-0.75-7.1,2.23-11.17,5.87-12.75c0.03,4.44,0.33,12.91,2.01,16.57C282.655,328.632,284.715,330.772,286.795,332.552z"/>
							</g>
							<g>
								<path style="fill:#3F281C;" d="M295.385,308.122c-0.14,0.46-0.32,0.88-0.53,1.26c-2.32,4.19-8.63,3.67-8.63,3.67
									c-0.5,6.25-5.21,6.11-5.21,6.11l-0.13,3.39l-3.94,0.41l-2.54,4.72c0,0-5.6-4.16-6.49-10.54c-0.36-2.56,0.06-4.25,0.7-5.35
									c0.94-1.65,2.36-2,2.36-2c1.27-9.53,14.75-4.24,14.75-4.24S297.045,302.572,295.385,308.122z"/>
								<path style="fill:#2D1A12;" d="M294.855,309.382c-2.32,4.19-8.63,3.67-8.63,3.67c-0.5,6.25-5.21,6.11-5.21,6.11l-0.13,3.39
									l-3.94,0.41l-2.54,4.72c0,0-5.6-4.16-6.49-10.54c-0.36-2.56,0.06-4.25,0.7-5.35c1.48,0.8,3.88,1.79,6.35,1.54
									c4-0.41,4-3.92,4-3.92S288.035,311.382,294.855,309.382z"/>
							</g>
							<path style="fill:#C9936F;" d="M278.93,321.959c0,0-0.776-6.243-4.812-5.33c-4.036,0.914-2.352,11.57,4.323,11.265
								L278.93,321.959z"/>
						</g>
						<path style="fill:#ECE0D2;" d="M271.733,334.116l-1.361,4.765l13.783,2.212l-0.51-4.254
							C283.644,336.838,277.008,333.775,271.733,334.116z"/>
						<g>
							<path style="fill:#9F4C06;" d="M344.675,424.982l-19.6,3.16l-2.25-8.79l-34.81,14.67c0,0-24.74,4.42-30.15,0.37
								c-1.39-1.05-2.57-3.14-3.55-5.67c-1.56-3.98-2.62-9.06-3.26-12.83c-0.53-3.11-0.78-5.33-0.78-5.33l35.6-2.7
								c0,0,54.52-7.89,56.55-6.76C344.455,402.232,344.675,424.982,344.675,424.982z"/>
							<path style="fill:#823A04;" d="M344.675,424.982l-19.6,3.16l-2.25-8.79l-34.81,14.67c0,0-24.74,4.42-30.15,0.37
								c-1.39-1.05-2.57-3.14-3.55-5.67c9.29-1.6,11.95-8.68,6.7-9.87c-3.14-0.71-7.06-1.97-9.96-2.96
								c-0.53-3.11-0.78-5.33-0.78-5.33l35.6-2.7c0,0,54.52-7.89,56.55-6.76C344.455,402.232,344.675,424.982,344.675,424.982z"/>
						</g>
						<path style="fill:#51222F;" d="M336.109,420.518c-5.415,1.625-17.501,3.294-16.06,8.442
							c1.441,5.147,15.854,3.706,23.678,3.088c7.824-0.618,9.471-4.735,9.265-9.059C352.786,418.665,346.403,417.43,336.109,420.518
							z"/>
						<g>
							<g>
								<path style="fill:#C9936F;" d="M397.139,414.116c-0.333-0.111-11.111-4.111-11.111-4.111l-2.778,9.111l12.888,3.666
									L397.139,414.116z"/>
								<path style="fill:#51222F;" d="M422.501,398.251l-16.007,30.896c-1.014-0.49-2.031-1.008-3.023-1.523
									c-3.746-1.95-7.145-3.929-8.708-4.861c0.439-1.574,0.951-4.282,0.575-7.624c-0.114-1.03-0.313-2.112-0.623-3.252
									c0,0,4.563-1.5,8.959-4.128c1.586-0.936,3.144-2.017,4.456-3.235c4.965-4.589,5.906-6.995,8.165-7.81
									c0.883-0.321,2.037-0.151,3.102,0.173C421.045,397.383,422.501,398.251,422.501,398.251z"/>
								<path style="fill:#FFFFFF;stroke:#231F20;stroke-miterlimit:10;" d="M403.671,407.761l0.317,1.031
									c0.379,1.241-0.16,2.58-1.297,3.222c-2.544,1.43-5.931,2.648-7.355,3.125c-0.111-1.025-0.314-2.113-0.623-3.249
									C394.712,411.89,399.278,410.385,403.671,407.761z"/>
								<path style="fill:#9F4C06;" d="M422.501,398.251l-16.007,30.896c-1.014-0.49-2.031-1.008-3.023-1.523l15.925-30.737
									C421.045,397.383,422.501,398.251,422.501,398.251z"/>
							</g>
							<g>
								<path style="fill:#9F4C06;" d="M389.965,407.632l-2.33,7.1l-2.63,8l-45.96-6.98c0,0-19.83,10.13-26.36,13.74
									c-6.53,3.6-27.49,11.49-36.5,7.88c-4.12-1.65-6.93-6.87-8.75-12.07c-1.51-4.28-2.36-8.55-2.73-10.74
									c-0.17-0.96-0.24-1.52-0.24-1.52l23.44-6.98c0,0,10.41-3.89,21.58-7.94c12.59-4.56,26.14-9.32,26.86-8.96
									C337.695,389.842,389.965,407.632,389.965,407.632z"/>
								<path style="fill:#823A04;" d="M309.485,398.122c-0.09,4.39-2.31,14.03-19.29,17.81c-10.4,2.31-19.13,0.85-25.49-1.37
									c-0.17-0.96-0.24-1.52-0.24-1.52l23.44-6.98C287.905,406.062,298.315,402.172,309.485,398.122z"/>
								<path style="fill:#823A04;" d="M387.635,414.732l-2.63,8l-45.96-6.98c0,0-19.83,10.13-26.36,13.74
									c-6.53,3.6-27.49,11.49-36.5,7.88c-4.12-1.65-6.93-6.87-8.75-12.07c4.69,2,12.8,1.57,23.29-0.23
									c18.43-3.16,38.71-13.69,38.71-13.69s3.573-11.19,5.153-12.241c1.58-1.05,1.687,8.81,1.687,8.81s1.733-8.28,2.793-8.02
									c1.05,0.26,4.317,10.13,4.317,10.13L387.635,414.732z"/>
							</g>
						</g>
						<g>
							<path style="fill:#51222F;" d="M301.875,406.122c0,0-0.56,0.39-1.66,1.01c-3.38,1.89-11.85,5.92-24.68,7.2
								c-16.99,1.7-27.47-1.41-27.47-1.41s-0.58-15.3,0.82-30.25c0.57-6.1,1.47-12.13,2.86-17.05c4.81-16.99,8.55-27.13,22.09-28.32
								c7.82-0.69,16.02,4.41,20.63,14.54c1.07,2.34,1.95,4.96,2.59,7.83c0.65,2.93,1.23,6.44,1.74,10.21
								C300.945,385.762,301.875,406.122,301.875,406.122z"/>
							<path style="fill:#3D1A25;" d="M301.875,406.122c0,0-9.35,6.51-26.34,8.21c-16.99,1.7-27.47-1.41-27.47-1.41
								s-0.58-15.3,0.82-30.25c6.89,7.21,15.2,13.06,24.33,17.03c2.99,1.3,6.29,2.42,9.45,1.64c0.96-0.24,2.07-0.98,1.83-1.95
								c-0.11-0.47-0.53-0.8-0.92-1.11c-4.85-3.85-8.31-9.42-9.61-15.47c8.89-2.98,16.1-10.56,18.63-19.6
								c1.02-3.64,1.35-7.55,1.87-11.37c1.07,2.34,1.95,4.96,2.59,7.83C300.455,374.972,301.875,406.122,301.875,406.122z"/>
							<path style="fill:#2B111A;" d="M301.875,406.122c0,0-0.56,0.39-1.66,1.01c-0.11-0.03-0.23-0.08-0.34-0.12
								c-30.04-11.42-26.32-58.84-25.57-59.09l24.49,21.96C300.945,385.762,301.875,406.122,301.875,406.122z"/>
						</g>
						<g>
							<g>
								<g>
									<polygon style="fill:#9F4C06;" points="323.438,332.655 338.228,332.655 336.146,350.245 326.597,350.245 									"/>
									<path style="fill:#2D1A12;" d="M323.438,332.655c0,0,1.867,1.795,7.754,1.795s7.036-1.795,7.036-1.795
										S331.192,328.635,323.438,332.655z"/>
								</g>
								<g>
									<path style="fill:#C9936F;" d="M338.565,341.542l-0.84,1.86l0.45,2.1c0.04,0.22,0.03,0.44-0.05,0.65l-0.47,1.36l0.59,1.78
										c0.08,0.25,0.08,0.52-0.01,0.77l-0.49,1.45l0.54,1.6c0.06,0.21,0.08,0.43,0.03,0.64l-0.03,0.15l-0.21,0.96
										c-0.06,0.28-0.22,0.54-0.45,0.71l-9.11,6.89l-4.6-4.22c0,0,0.32-3.56,0.6-6.99c0.22-2.73,0.42-5.38,0.42-6.06
										c0-1.53,0.64-2.04,0.64-2.04l2.94,4.09l8.15-7.11c0.51-0.45,1.29-0.39,1.73,0.13c0.19,0.22,0.28,0.49,0.28,0.77
										C338.675,341.202,338.635,341.382,338.565,341.542z"/>
									<path style="fill:#BA7E5D;" d="M338.285,353.902l-0.21,0.96c-0.06,0.28-0.22,0.54-0.45,0.71l-9.11,6.89l-4.6-4.22
										c0,0,0.32-3.56,0.6-6.99c1.47,0.04,3.64,0.41,6.02,1.88C332.575,354.392,335.645,354.322,338.285,353.902z"/>
								</g>
							</g>
							<g>
								<g>
									<g>
										<path style="fill:#51222F;" d="M332.405,363.382c0,0-21.37,35.29-31.1,35.29s-16.79-11.06-24.23-26.71
											c-4.39-9.23-5.66-16.61-4.59-21.77c0.74-3.59,2.61-6.1,5.35-7.42c10.3-4.96,24.23,26.9,24.23,26.9l20.99-16.02
											c4.3,0.82,6.68,3.57,7.96,5.94C332.115,361.622,332.405,363.382,332.405,363.382z"/>
									</g>
								</g>
								<path style="fill:#3D1A25;" d="M332.405,363.382c0,0-21.37,35.29-31.1,35.29s-16.79-11.06-24.23-26.71
									c-4.39-9.23-5.66-16.61-4.59-21.77c4.04,13.9,21.54,35.32,25.1,37.01c4.25,2.01,1.79-10.3,2.91-11.41
									c1.07-1.08,3.81,8.22,4.01,8.91c-0.09-0.55-1.07-6.7-0.21-7.12c0.89-0.45,2.91,3.58,2.91,3.58l23.81-21.57
									C332.115,361.622,332.405,363.382,332.405,363.382z"/>
							</g>
						</g>
					</g>
				</g>
				<g>
					<g>
						<path style="fill:#BA7E5D;" d="M481.113,426.074c0,0-2.173,5.192-1.57,6.641c0.604,1.449,4.709,0.845,6.762,0.845
							c2.053,0,6.762,1.449,9.056-0.242c2.294-1.69-5.554-6.641-5.554-6.641L481.113,426.074z"/>
						<g>
							<path style="fill:#ECE0D2;" d="M491,427.162l-1.56,0.06l-9.22,0.35c0,0-4.36-41.67-5.39-49.97
								c-1.04-8.29-3.13-29.43,6.83-27.57c4.28,0.8,6.82,12.15,7.99,22.14c0.39,3.27,0.63,6.4,0.73,8.96
								C490.79,391.492,491,427.162,491,427.162z"/>
							<path style="fill:#CEBFAF;" d="M484.44,410.032c1.56,5.76,3.23,11.49,5,17.19l-9.22,0.35c0,0-4.36-41.67-5.39-49.97
								c-1.04-8.29-3.13-29.43,6.83-27.57c4.28,0.8,6.82,12.15,7.99,22.14c-0.33,1.47-0.73,2.92-1.13,4.34
								c-1.65,5.93-3.13,11.91-4.43,17.93c-0.6,2.74-1.16,5.52-1.04,8.32C483.15,405.232,483.79,407.642,484.44,410.032z"/>
						</g>
					</g>
					<g>
						<g>
							<path style="fill:#BA7E5D;" d="M389.579,420.658c0.141-0.19,4.527-6.559,4.527-6.559l5.052,3.941l-5.677,7.002
								L389.579,420.658z"/>
							<path style="fill:#223D52;" d="M373.426,432.297l23.317-2.07c-0.046-0.756-0.109-1.521-0.175-2.271
								c-0.257-2.83-0.62-5.45-0.801-6.661c-1.092-0.129-2.908-0.502-4.892-1.59c-0.612-0.334-1.235-0.735-1.865-1.219
								c0,0-2.099,2.457-4.858,4.521c-0.987,0.748-2.059,1.441-3.151,1.947c-4.124,1.918-5.862,1.889-6.946,3.086
								c-0.425,0.468-0.614,1.229-0.685,1.975C373.258,431.168,373.426,432.297,373.426,432.297z"/>
							<path style="fill:#51222F;" d="M384.155,423.007l0.561,0.461c0.676,0.553,1.647,0.559,2.336,0.016
								c1.54-1.218,3.163-3.015,3.824-3.779c-0.61-0.331-1.235-0.735-1.863-1.218C389.013,418.486,386.91,420.943,384.155,423.007z"
								/>
							<path style="fill:#51222F;" d="M373.426,432.297l23.317-2.07c-0.046-0.756-0.109-1.521-0.175-2.271l-23.197,2.059
								C373.258,431.168,373.426,432.297,373.426,432.297z"/>
						</g>
						<g>
							<path style="fill:#51222F;" d="M467.44,413.552c0,0-3.9,12.12-8.62,16.42c-4.73,4.31-14.24,4.48-19.69,1.79
								c-5.45-2.7-11.95-38.77-11.95-38.77l-25.92,28.03l-5.68-3.85l-3.2-2.17c0,0,27.76-42.51,31.75-45.92
								c4-3.41,12.9-1.62,14.96-0.2c0.38,0.26,1.58,1.95,3.29,4.52C449.94,384.772,467.44,413.552,467.44,413.552z"/>
							<path style="fill:#2B111A;" d="M467.44,413.552c0,0-3.9,12.12-8.62,16.42c-4.73,4.31-14.24,4.48-19.69,1.79
								c-5.45-2.7-11.95-38.77-11.95-38.77l-25.92,28.03l-5.68-3.85c8.64-11.3,23.74-36.12,25.46-38.62
								c2.29-3.33,5.83-11.02,12.49-8.94c1.33,0.42,4.54,1.78,8.85,3.79C449.94,384.772,467.44,413.552,467.44,413.552z"/>
						</g>
					</g>
					<g>
						<g>
							<path style="fill:#BA7E5D;" d="M368.012,422.914c0.141-0.19,4.527-6.559,4.527-6.559l5.052,3.942l-5.677,7.002
								L368.012,422.914z"/>
							<path style="fill:#223D52;" d="M351.859,434.553l23.317-2.07c-0.046-0.756-0.109-1.521-0.175-2.271
								c-0.256-2.83-0.62-5.45-0.801-6.661c-1.092-0.129-2.908-0.502-4.892-1.59c-0.612-0.334-1.234-0.735-1.865-1.219
								c0,0-2.099,2.457-4.858,4.521c-0.987,0.748-2.059,1.441-3.151,1.947c-4.124,1.918-5.862,1.889-6.946,3.086
								c-0.425,0.468-0.614,1.229-0.685,1.975C351.691,433.425,351.859,434.553,351.859,434.553z"/>
							<path style="fill:#51222F;" d="M362.588,425.263l0.561,0.461c0.676,0.553,1.647,0.559,2.336,0.015
								c1.54-1.218,3.163-3.015,3.824-3.779c-0.61-0.331-1.235-0.735-1.863-1.218C367.446,420.742,365.343,423.199,362.588,425.263z
								"/>
							<path style="fill:#51222F;" d="M351.859,434.553l23.317-2.07c-0.046-0.756-0.109-1.521-0.175-2.271l-23.197,2.059
								C351.691,433.425,351.859,434.553,351.859,434.553z"/>
						</g>
						<g>
							<path style="fill:#51222F;" d="M450.25,415.352c0,0-2.81,12.03-7.53,16.33c-4.73,4.31-16.38,4.68-21.84,1.99
								c-5.45-2.7-15.27-38.42-15.27-38.42l-25.92,28.03l-6.93-4.71l-1.95-1.32c0,0,27.76-42.5,31.76-45.91
								c4-3.42,12.89-1.63,14.95-0.21c0.64,0.44,4.09,4.95,8.53,10.92C435.78,395.162,450.25,415.352,450.25,415.352z"/>
							<path style="fill:#3D1A25;" d="M450.25,415.352c0,0-2.81,12.03-7.53,16.33c-4.73,4.31-16.38,4.68-21.84,1.99
								c-5.45-2.7-15.27-38.42-15.27-38.42l-25.92,28.03l-6.93-4.71c7.9-4.86,30.19-30.24,30.19-30.24s0.2-11.44,1.45-12.69
								s2.08,10.82,2.08,10.82s1.46-9.16,2.71-9.16c1.24,0,4.78,11.24,4.78,11.24s6-3.91,12.08-6.49
								C435.78,395.162,450.25,415.352,450.25,415.352z"/>
						</g>
					</g>
					<g>
						<path style="fill:#ECE0D2;" d="M484.29,373.542c-0.08,0.41-0.17,0.82-0.27,1.24c-4.24,18.39-17.68,45.96-17.68,45.96
							s-24.51,2.83-32.53-0.94c-8.01-3.77-11.78-20.51-11.78-20.51l16.03-20.5c0,0-0.71-7.78,0.7-11.79
							c1.42-4,13.2-18.62,13.2-18.62s8.99,0.09,17.34,0.5c5.1,0.25,9.95,0.62,12.36,1.15
							C481.66,350.032,487.96,356.112,484.29,373.542z"/>
						<path style="fill:#CEBFAF;" d="M484.29,373.542c-0.08,0.41-0.17,0.82-0.27,1.24c-4.24,18.39-17.68,45.96-17.68,45.96
							s-24.51,2.83-32.53-0.94c-2.45-1.16-4.51-3.52-6.17-6.26c-3.79-6.19-5.61-14.25-5.61-14.25l16.03-20.5
							c0,0-0.71-7.78,0.7-11.79c0.48-1.36,2.17-3.95,4.18-6.78c3.9-5.48,9.02-11.84,9.02-11.84s8.99,0.09,17.34,0.5
							c0.91,1.64,1.62,3.42,2.29,5.17c2.97,7.8,5.63,16.26,3.6,24.35c-0.76,3.01-2.28,5.99-4.9,7.67c-3.38,2.16-7.72,1.7-11.73,1.87
							c-4.01,0.18-8.68,1.69-9.81,5.54c-0.45,1.55-0.23,3.23,0.2,4.79c0.67,2.46,1.93,4.9,4.09,6.27c2.15,1.37,5.33,1.33,7-0.6
							c0.69-0.8,1.06-1.82,1.68-2.67c1.49-2.05,4.1-2.85,6.31-4.08c5.2-2.91,8.31-8.41,11.16-13.65
							C480.97,380.292,482.76,376.952,484.29,373.542z"/>
						<path style="fill:#AF9F91;" d="M464.33,376.062l-1.25,4.61c-4.48,1.46-9.27,1.96-13.95,1.45
							c-4.74,9.14-10.27,17.87-16.51,26.06c-1.35,1.77-2.74,3.52-4.45,4.94c-0.17,0.14-0.35,0.28-0.53,0.42
							c-3.79-6.19-5.61-14.25-5.61-14.25l16.03-20.5c0,0-0.71-7.78,0.7-11.79c0.48-1.36,2.17-3.95,4.18-6.78
							c1.56,0.02,3.12,0.18,4.64,0.53c5.27,1.23,9.77,4.71,13.45,8.67C462.76,371.282,464.44,373.522,464.33,376.062z"/>
					</g>
					<g>
						<path style="fill:#ECE0D2;" d="M453.71,358.352c-1.31,5.57-8.63,23.03-13.26,30.06c-0.8,1.22-1.52,2.12-2.11,2.6
							c-4.03,3.27-27.47,17.1-27.47,17.1c-9.28,0-7.48-5.73-6.42-7.96c0.26-0.54,0.47-0.88,0.47-0.88l17.09-12.87
							c0,0,6.54-9.61,11.15-18.63c4.61-9.03,9.99-19.41,18.8-19.39C451.96,348.382,455.25,351.822,453.71,358.352z"/>
						<path style="fill:#CEBFAF;" d="M440.47,388.332c-0.01,0.03-0.01,0.05-0.02,0.08c-0.8,1.22-1.52,2.12-2.11,2.6
							c-4.03,3.27-27.47,17.1-27.47,17.1c-9.28,0-7.48-5.73-6.42-7.96c0.3,0.09,0.6,0.15,0.9,0.18c2.44,0.27,4.82-0.71,7.08-1.67
							c4.94-2.09,9.88-4.18,14.82-6.28C431.51,390.582,435.86,388.752,440.47,388.332z"/>
					</g>
					<path style="fill:#BA7E5D;" d="M455.434,321.226c-6.05-0.538-6.856,9.411-6.722,15.73c0.134,6.319,7.663,6.05,11.965,3.63
						c4.302-2.42,6.05-11.965,4.437-16.133C463.5,320.285,455.434,321.226,455.434,321.226z"/>
					<g>
						<path style="fill:#B56729;" d="M479.64,371.352c-0.2,6.07-2.86,11.01-10.76,11.58c-18.55,1.35-29.44-8.74-22.32-20.84
							c7.13-12.1,13.44-13.57,13.71-28.63l-3.09-0.41l0.41-4.16c0,0-2.42-0.54-2.69-4.17c0,0-5.65,0.4-6.99-2.82
							c-0.43-1.03,0.52-2.55,2.33-3.95c3.89-3.01,11.77-5.44,18.56-1.13c9.95,6.32,2.09,24.03,5.19,31.7
							C475.76,352.922,479.93,363.172,479.64,371.352z"/>
						<path style="fill:#683109;" d="M479.64,371.352c-0.2,6.07-2.86,11.01-10.76,11.58c-18.55,1.35-29.44-8.74-22.32-20.84
							c7.13-12.1,13.44-13.57,13.71-28.63l-3.09-0.41l0.41-4.16c0,0-2.42-0.54-2.69-4.17c0,0-5.65,0.4-6.99-2.82
							c-0.43-1.03,0.52-2.55,2.33-3.95c2.69,2.13,7.2,1.74,7.2,1.74s0,3.28,2.85,4.85s6.84-0.43,6.84-0.43s2.29,7.85-2.85,17.4
							c-5.13,9.55-12.97,22.24-10.98,30.09c0,0,2-8.7,5.56-12.41c0,0,1.86,6.99,11.84,4.14c0,0,1.94,3.58,1.72,8.32
							c0.08-1.43,0.45-9.31-0.58-14.74c0,0,3.42,2.99,6.56,11.83C478.74,369.692,479.16,370.552,479.64,371.352z"/>
					</g>
					<path style="fill:#BA7E5D;" d="M459.064,331.309c0,0,1.882-2.42,5.109-1.344c3.227,1.076,0.807,6.991-5.647,6.857
						L459.064,331.309z"/>
				</g>
				<g>
					<g>
						<path style="fill:#51222F;" d="M131.581,387.913l-66.774,61.078c-1.103,1.008-1.179,2.72-0.17,3.822
							c1.008,1.103,2.72,1.179,3.822,0.17l66.774-61.078c1.103-1.008,1.179-2.72,0.17-3.822
							C134.395,386.981,132.684,386.905,131.581,387.913"/>
						<path style="fill:#3D1A25;" d="M131.581,387.913l-66.774,61.078c-1.103,1.008-1.179,2.72-0.17,3.822
							c1.008,1.103,2.72,1.179,3.822,0.17l66.774-61.078c1.103-1.008,1.179-2.72,0.17-3.822
							C134.395,386.981,132.684,386.905,131.581,387.913z"/>
						<path style="fill:#3D1A25;" d="M64.807,391.905l66.774,61.078c1.102,1.008,2.814,0.932,3.822-0.17
							c1.008-1.102,0.932-2.814-0.17-3.822l-66.774-61.078c-1.102-1.008-2.814-0.932-3.822,0.17
							C63.628,389.186,63.704,390.897,64.807,391.905z"/>
					</g>
					<path style="fill:#6D551F;" d="M196.685,387.152l-5.77,16.84c-2.05,6-5.89,11-10.81,14.52c-4.91,3.51-10.9,5.52-17.23,5.52
						c-12.5,0-33.781-4.583-38.021-16.333l5.82-15.177l1.84-5.37H196.685z"/>
					<g>
						<polygon style="fill:#C9936F;" points="123.404,321.722 111.224,321.722 111.784,303.032 113.004,303.612 122.264,307.982 
							122.934,316.022 						"/>
						<path style="fill:#3F281C;" d="M122.934,316.022c-7.24-1.54-9.34-8.91-9.93-12.41l9.26,4.37L122.934,316.022z"/>
					</g>
					<g>
						<g>
							<g>
								<g>
									<polygon style="fill:#C9936F;" points="209.104,441.462 197.964,437.912 196.724,428.182 196.644,427.552 195.634,419.672 
										208.144,418.552 208.374,424.022 208.464,426.212 									"/>
									<path style="fill:#BA7E5D;" d="M208.464,426.212c-4.47,1.87-9.19,2.05-11.74,1.97l-0.08-0.63l-1.01-7.88l12.51-1.12
										l0.23,5.47L208.464,426.212z"/>
								</g>
								<g>
									<path style="fill:#9F4C06;" d="M240.845,451.482h-44.82c-0.04-1.45-0.05-2.92-0.05-4.36c0.01-5.44,0.26-10.5,0.4-12.84
										c2.06-0.43,5.46-1.45,9.06-3.86c1.11-0.74,2.23-1.61,3.35-2.64c0,0,4.42,4.33,10.03,7.8c2.01,1.26,4.17,2.4,6.34,3.18
										c8.19,2.96,11.5,2.61,13.77,4.71c0.89,0.82,1.38,2.24,1.64,3.65C240.975,449.302,240.845,451.482,240.845,451.482z"/>
									<path style="fill:#CC702B;" d="M218.811,435.582l-0.992,0.974c-1.195,1.169-3.046,1.346-4.453,0.425
										c-3.143-2.063-6.543-5.215-7.933-6.56c1.107-0.735,2.231-1.611,3.347-2.638
										C208.78,427.782,213.207,432.111,218.811,435.582z"/>
									<path style="fill:#CC702B;" d="M240.845,451.482h-44.82c-0.04-1.45-0.05-2.92-0.05-4.36h44.59
										C240.975,449.302,240.845,451.482,240.845,451.482z"/>
								</g>
							</g>
							<g>
								<path style="fill:#223D52;" d="M214.614,421.062c-1.83,1.72-3.77,2.84-5.7,3.52c-7.52,2.65-14.91-1.28-14.91-1.28
									l-6.21-31.29c0,0-25.82,24.34-33.52,27.07c-7.7,2.73-19.62,3.47-25.83-0.25c-6.2-3.73-13.16-14.4-13.16-14.4l30.05-22.6
									c0,0,2.32-1.25,5.98-3.22c13.35-7.17,44.5-23.85,45.67-23.85c1.49,0,12.91,4.23,14.15,7.7
									C212.374,365.942,214.614,421.062,214.614,421.062z"/>
								<path style="fill:#0D1B23;" d="M208.914,424.582c-7.52,2.65-14.91-1.28-14.91-1.28l-6.21-31.29c0,0-25.82,24.34-33.52,27.07
									c-7.7,2.73-19.62,3.47-25.83-0.25c-6.2-3.73-13.16-14.4-13.16-14.4l30.05-22.6c0,0,2.32-1.25,5.98-3.22
									c1.69,3.99,3.92,8.98,5.19,10.67c2.24,2.98,0-7.95,1.24-8.94c1.25-0.99,4.97,6.95,4.97,6.95l29.05-12.66
									c0,0,8.45-10.43,9.94-10.68c1.49-0.25-5.47,15.4-5.47,15.4s9.94-10.93,11.43-11.18c1.48-0.24-6.46,19.12-6.46,19.12
									S206.004,411.282,208.914,424.582z"/>
							</g>
						</g>
						<g>
							<g>
								<g>
									<polygon style="fill:#C9936F;" points="264.684,434.082 253.274,436.642 246.904,428.362 242.054,422.072 252.284,414.792 
										255.244,419.392 									"/>
									<path style="fill:#BA7E5D;" d="M255.244,419.392c-2.19,3.8-5.59,6.89-8.34,8.97l-4.85-6.29l10.23-7.28L255.244,419.392z"/>
								</g>
								<g>
									<path style="fill:#9F4C06;" d="M294.067,451.482h-44.82c-0.04-1.45-0.05-2.92-0.05-4.36c0.01-5.44,0.26-10.5,0.4-12.84
										c2.06-0.43,5.46-1.45,9.06-3.86c1.11-0.74,2.23-1.61,3.35-2.64c0,0,4.42,4.33,10.03,7.8c2.01,1.26,4.17,2.4,6.34,3.18
										c8.19,2.96,11.5,2.61,13.77,4.71c0.89,0.82,1.38,2.24,1.64,3.65C294.197,449.302,294.067,451.482,294.067,451.482z"/>
									<path style="fill:#CC702B;" d="M272.033,435.582l-0.992,0.974c-1.195,1.169-3.046,1.346-4.453,0.425
										c-3.143-2.063-6.543-5.215-7.933-6.56c1.107-0.735,2.231-1.611,3.347-2.638
										C262.002,427.782,266.429,432.111,272.033,435.582z"/>
									<path style="fill:#CC702B;" d="M294.067,451.482h-44.82c-0.04-1.45-0.05-2.92-0.05-4.36h44.59
										C294.197,449.302,294.067,451.482,294.067,451.482z"/>
								</g>
							</g>
							<g>
								<path style="fill:#223D52;" d="M256.324,416.102c-0.64,0.69-1.28,1.33-1.93,1.92c-7.74,7.06-16.19,7.27-16.19,7.27
									c-8.69-9.69-35.26-44.45-35.26-44.45s-21.11,33.52-26.57,35.75c-5.46,2.24-23.59,2.98-28.31,1
									c-4.72-1.99-14.9-16.14-14.9-16.14s12.28-9.8,26.27-20.85c3.68-2.91,7.48-5.9,11.21-8.83
									c14.35-11.27,27.58-21.51,28.57-21.72c2.24-0.5,17.14-0.75,20.36,3.47c0.7,0.92,2.83,4.38,5.73,9.25
									C235.774,380.332,256.324,416.102,256.324,416.102z"/>
								<path style="fill:#172C3A;" d="M254.394,418.022c-7.74,7.06-16.19,7.27-16.19,7.27c-8.69-9.69-35.26-44.45-35.26-44.45
									s-21.11,33.52-26.57,35.75c-5.46,2.24-23.59,2.98-28.31,1c-4.72-1.99-14.9-16.14-14.9-16.14s19.61-15.65,37.48-29.68
									c2.29,4.04,7.15,12.94,8.46,18.01c1.74,6.7,0-4.97-0.5-10.93c-0.49-5.96,4.72,5.71,5.71,6.95c1,1.25-0.74-8.69-0.24-9.68
									c0.49-0.99,3.72,4.47,3.72,4.47s21.6-17.64,23.34-18.13c1.74-0.49-4.72,10.18-4.72,10.18s8.2-5.46,8.94-4.71
									c0.75,0.74-0.74,7.2-0.74,7.2S236.754,407.932,254.394,418.022z"/>
								<path style="fill:#172C3A;" d="M225.304,362.772c-3.92,0.95-6.72-4.8-6.72-4.8s-4.58,2.29-6.48,3.05
									c-1.91,0.76-7.83-3.24-7.83-3.24s-26.71,17.93-31.86,21.37c-5.15,3.43-10.31,6.29-13.17,2.29l0.19-0.84
									c3.68-2.91,7.48-5.9,11.21-8.83c14.35-11.27,27.58-21.51,28.57-21.72c2.24-0.5,17.14-0.75,20.36,3.47
									C220.274,354.442,222.404,357.902,225.304,362.772z"/>
							</g>
						</g>
					</g>
					<g>
						<path style="fill:#ECE0D2;" d="M173.644,382.692c0,0-0.16,1.09-0.64,2.8c-1.49,5.29-6.09,16.52-18.84,20.06
							c-16.88,4.67-39.22,2.6-39.22,2.6c-17.15-24.42-19.81-66.16-18.06-74.49c0.36-1.72,0.88-3.28,1.56-4.69
							c2.59-5.44,7.52-8.55,14.95-8.9c0,0,15.16-0.76,20.07,3.29c6.14,5.08,10.77,17.02,17.14,30.1c0.4,0.82,0.81,1.65,1.22,2.48
							c5.46,10.92,15.65,21.06,19.89,25C172.924,382.072,173.644,382.692,173.644,382.692z"/>
						<path style="fill:#CEBFAF;" d="M173.004,385.492c-1.49,5.29-6.09,16.52-18.84,20.06c-16.88,4.67-39.22,2.6-39.22,2.6
							c-17.15-24.42-19.81-66.16-18.06-74.49c0.36-1.72,0.88-3.28,1.56-4.69c7.49-3.75,19.99-5.59,31.32,3.63
							C143.354,343.652,151.484,382.932,173.004,385.492z"/>
						<path style="fill:#A89A8E;" d="M171.714,380.942c-7.09,4.26-17.01,9.59-19.39,7.69c-3.8-3.04-15.21-35.49-15.21-35.49
							s6.58,0.06,13.49,0.32c0.4,0.82,0.81,1.65,1.22,2.48C157.284,366.862,167.474,377.002,171.714,380.942z"/>
					</g>
					<g>
						<path style="fill:#C9936F;" d="M224.654,361.402c-0.15,0.05-0.31,0.07-0.46,0.07c-0.53,0-1.05-0.28-1.33-0.76l-3.31-5.66
							c0,0-6.72,2.29-8.85,2.13c-2.13-0.17-7.04-2.46-7.04-2.46s-39.81,26.7-45.71,28.01c-3.27,0.73-8.16-5.81-11.86-11.77
							c-2.97-4.78-5.18-9.2-5.18-9.2l5.74-2.52l10.65-4.68l2.12,3.5l1.64,2.72c0,0,36.7-14.09,38.83-14.42
							c2.13-0.32,17.37-0.49,19.82,0.17c1.21,0.32,2.78,3.84,4.07,7.32c0.79,2.14,1.47,4.27,1.88,5.63
							C225.914,360.292,225.464,361.152,224.654,361.402z"/>
						<path style="fill:#BA7E5D;" d="M159.424,358.062l-13.33,12.9c-2.97-4.78-5.18-9.2-5.18-9.2l5.74-2.52l10.65-4.68
							L159.424,358.062z"/>
						<path style="fill:#BA7E5D;" d="M224.654,361.402c-0.15,0.05-0.31,0.07-0.46,0.07c-0.53,0-1.05-0.28-1.33-0.76l-3.31-5.66
							c0,0-6.72,2.29-8.85,2.13c-2.13-0.17-7.04-2.46-7.04-2.46s-39.81,26.7-45.71,28.01c-5.9,1.31-17.04-20.97-17.04-20.97
							l5.74-2.52c2.71,4.88,8.4,14.82,10.97,16.78c3.44,2.62,45.71-25.72,45.71-25.72s6.55,2.78,9.67,2.62
							c3.11-0.17,6.55-2.3,6.55-2.3s1.43,2.57,4.23,3.23c0.79,2.14,1.47,4.27,1.88,5.63
							C225.914,360.292,225.464,361.152,224.654,361.402z"/>
					</g>
					<g>
						<path style="fill:#ECE0D2;" d="M160.084,354.562c-11.47,7.2-19.99,9.66-19.99,9.66s-7.04-13.6-11.63-23.26
							c-3.81-8.05-3.89-14.85-1.64-17.84c0.46-0.61,1.01-1.06,1.64-1.33c0,0,7.7-1.64,14.75,7.37c6.74,8.62,16.02,24,16.82,25.31
							C160.064,354.532,160.084,354.562,160.084,354.562z"/>
						<path style="fill:#CEBFAF;" d="M160.084,354.562c-11.47,7.2-19.99,9.66-19.99,9.66s-7.04-13.6-11.63-23.26
							c-3.81-8.05-3.89-14.85-1.64-17.84c1.32,9.27,14.14,26.03,16.4,26.69c2.61,0.76-2.45,4.14-2.45,4.14s5.83,4.69,19.26,0.52
							C160.064,354.532,160.084,354.562,160.084,354.562z"/>
					</g>
					<g>
						<g>
							<path style="fill:#C9936F;" d="M129.574,305.502c-1.02,2.05-2.33,3.42-3.78,4.24c-5.56,3.18-13.25-1.67-15.45-7.02
								c-2.54-6.15-2.43-20.56,7.26-23.03h0.01c0.93-0.23,1.94-0.36,3.04-0.36C129.574,279.332,134.524,295.582,129.574,305.502z"/>
							<path style="fill:#BA7E5D;" d="M125.794,309.742c-5.56,3.18-13.25-1.67-15.45-7.02c-2.54-6.15-2.43-20.56,7.26-23.03
								c-0.94,5.65-2.36,17.92,1.8,24.15C121.444,306.902,123.724,308.702,125.794,309.742z"/>
						</g>
						<g>
							<path style="fill:#3F281C;" d="M136.73,279.572c-0.01,0.88-0.07,1.67-0.18,2.36c-1.23,8.01-8.43,4.37-8.43,4.37
								c-3.53,2.2-6.51-1.55-6.51-1.55c0.55,6.07-3.31,6.73-3.31,6.73l0.55,5.19l-2.87-0.11l-2.1-0.66l-0.55,10.04
								c-6.07,1.66-8.5-3.75-8.5-3.75c-3.97-0.88-3.64-5.96-3.64-5.96s-4.63-3.75-3.31-12.14c0.11-0.71,0.29-1.35,0.52-1.93
								c2.44-6.24,10.85-5.13,10.85-5.13s0.99-6.18,6.4-6.84c5.41-0.67,9.05,2.64,9.05,2.64S136.84,268.532,136.73,279.572z"/>
							<path style="fill:#2D1A12;" d="M136.55,281.932c-1.23,8.01-8.43,4.37-8.43,4.37c-3.53,2.2-6.51-1.55-6.51-1.55
								c0.55,6.07-3.31,6.73-3.31,6.73l0.55,5.19l-2.87-0.11l-2.1-0.66l-0.55,10.04c-6.07,1.66-8.5-3.75-8.5-3.75
								c-3.97-0.88-3.64-5.96-3.64-5.96s-4.63-3.75-3.31-12.14c0.11-0.71,0.29-1.35,0.52-1.93c4.3,1.76,9.69,1.62,9.69,1.62
								s3.22,3.43,6.01,1.93c2.79-1.5,2.15-7.08,2.15-7.08s7.08,3.65,11.16,2.79c4.08-0.86,5.15-3.65,5.15-3.65
								S133.69,280.722,136.55,281.932z"/>
						</g>
						<path style="fill:#C9936F;" d="M116.311,293.583c0,0-1.104-3.642-4.635-2.98c-3.531,0.662-2.172,12.042,6.105,10.497
							L116.311,293.583z"/>
					</g>
					<g>
						<path style="fill:#9C7E35;" d="M162.88,424.032H98.71c-6.24,0-12.16-1.96-17.04-5.38c-4.88-3.43-8.72-8.32-10.85-14.2
							l-15.32-42.44l-12.36-34.23h64.17l23.37,64.74l4.31,11.93c1.76,4.89,4.73,9.1,8.49,12.35
							C148.74,421.362,155.58,424.032,162.88,424.032z"/>
						<path style="fill:#6D551F;" d="M113.582,392.545c-9.335-4.473-9.494,11.356,3.351,14.706
							C129.777,410.602,122.517,396.827,113.582,392.545z"/>
						<path style="fill:#6D551F;" d="M162.88,424.032H98.71c-6.24,0-12.16-1.96-17.04-5.38c-4.88-3.43-8.72-8.32-10.85-14.2
							l-15.32-42.44c1.15,1.05,2.38,1.99,3.7,2.82c4.11,2.6,8.83,4.03,13.19,6.2c4.35,2.17,8.55,5.38,10.12,9.98
							c1.5,4.44,1.14,10.68,5.57,12.21c2.54,0.88,6.19-0.11,7.37,2.3c0.3,0.6,0.33,1.29,0.42,1.95c0.42,3.44,2.21,6.58,4.44,9.22
							c8.52,10.09,23.13,13.13,36.22,11.4c2.35-0.31,4.66-0.75,6.95-1.29C148.74,421.362,155.58,424.032,162.88,424.032z"/>
					</g>
					<g>
						<path style="fill:#51222F;" d="M195.081,387.913l-66.774,61.078c-1.103,1.008-1.179,2.72-0.17,3.822
							c1.008,1.103,2.72,1.179,3.822,0.17l66.774-61.078c1.103-1.008,1.179-2.72,0.17-3.822
							C197.895,386.981,196.184,386.905,195.081,387.913"/>
						<path style="fill:#51222F;" d="M195.081,387.913l-66.774,61.078c-1.103,1.008-1.179,2.72-0.17,3.822
							c1.008,1.103,2.72,1.179,3.822,0.17l66.774-61.078c1.103-1.008,1.179-2.72,0.17-3.822
							C197.895,386.981,196.184,386.905,195.081,387.913z"/>
						<path style="fill:#51222F;" d="M128.307,391.905l66.774,61.078c1.102,1.008,2.814,0.932,3.822-0.17
							c1.008-1.102,0.932-2.814-0.17-3.822l-66.774-61.078c-1.102-1.008-2.814-0.932-3.822,0.17
							C127.128,389.186,127.204,390.897,128.307,391.905z"/>
					</g>
				</g>
				<g>
					<g>
						<path style="fill:#FFFFFF;stroke:#231F20;stroke-miterlimit:10;" d="M618.419,387.913l66.774,61.078
							c1.102,1.008,1.179,2.72,0.17,3.822c-1.008,1.103-2.72,1.179-3.822,0.17l-66.774-61.078c-1.103-1.008-1.179-2.72-0.17-3.822
							C615.605,386.981,617.316,386.905,618.419,387.913"/>
						<path style="fill:#3D1A25;" d="M618.419,387.913l66.774,61.078c1.102,1.008,1.179,2.72,0.17,3.822
							c-1.008,1.103-2.72,1.179-3.822,0.17l-66.774-61.078c-1.103-1.008-1.179-2.72-0.17-3.822
							C615.605,386.981,617.316,386.905,618.419,387.913z"/>
						<path style="fill:#3D1A25;" d="M685.193,391.905l-66.774,61.078c-1.102,1.008-2.814,0.932-3.822-0.17
							c-1.008-1.102-0.932-2.814,0.17-3.822l66.774-61.078c1.102-1.008,2.814-0.932,3.822,0.17
							C686.372,389.186,686.296,390.897,685.193,391.905z"/>
					</g>
					<path style="fill:#6D551F;" d="M553.315,387.152l5.77,16.84c2.05,6,5.89,11,10.81,14.52c4.91,3.51,10.9,5.52,17.23,5.52
						c12.5,0,33.781-4.583,38.021-16.333l-5.82-15.177l-1.84-5.37H553.315z"/>
					<g>
						<polygon style="fill:#BA7E5D;" points="626.576,321.667 638.67,323.108 640.325,304.483 639.045,304.914 629.333,308.158 
							627.717,316.063 						"/>
						<path style="fill:#824A2F;" d="M627.717,316.063c7.371-0.673,10.328-7.743,11.328-11.148l-9.712,3.244L627.717,316.063z"/>
					</g>
					<g>
						<g>
							<g>
								<g>
									<polygon style="fill:#BA7E5D;" points="513.274,434.082 524.684,436.642 531.054,428.362 535.904,422.072 525.674,414.792 
										522.714,419.392 									"/>
									<path style="fill:#824A2F;" d="M522.714,419.392c2.19,3.8,5.59,6.89,8.34,8.97l4.85-6.29l-10.23-7.28L522.714,419.392z"/>
								</g>
								<g>
									<path style="fill:#223D52;" d="M483.89,451.482h44.82c0.04-1.45,0.05-2.92,0.05-4.36c-0.01-5.44-0.26-10.5-0.4-12.84
										c-2.06-0.43-5.46-1.45-9.06-3.86c-1.11-0.74-2.23-1.61-3.35-2.64c0,0-4.42,4.33-10.03,7.8c-2.01,1.26-4.17,2.4-6.34,3.18
										c-8.19,2.96-11.5,2.61-13.77,4.71c-0.89,0.82-1.38,2.24-1.64,3.65C483.76,449.302,483.89,451.482,483.89,451.482z"/>
									<polygon style="fill:#9C7E35;" points="518.637,436.795 510.666,430.283 505.164,434.213 513.36,440.725 									"/>
									<path style="fill:#9C7E35;" d="M483.89,451.482h44.82c0.04-1.45,0.05-2.92,0.05-4.36h-44.59
										C483.76,449.302,483.89,451.482,483.89,451.482z"/>
								</g>
							</g>
							<g>
								<path style="fill:#223D52;" d="M521.633,416.102c0.64,0.69,1.28,1.33,1.93,1.92c7.74,7.06,16.19,7.27,16.19,7.27
									c8.69-9.69,35.26-44.45,35.26-44.45s21.11,33.52,26.57,35.75c5.46,2.24,23.59,2.98,28.31,1c4.72-1.99,14.9-16.14,14.9-16.14
									s-12.28-9.8-26.27-20.85c-3.68-2.91-7.48-5.9-11.21-8.83c-14.35-11.27-27.58-21.51-28.57-21.72
									c-2.24-0.5-17.14-0.75-20.36,3.47c-0.7,0.92-2.83,4.38-5.73,9.25C542.184,380.332,521.633,416.102,521.633,416.102z"/>
								<path style="fill:#0D1B23;" d="M523.564,418.022c7.74,7.06,16.19,7.27,16.19,7.27c8.69-9.69,35.26-44.45,35.26-44.45
									s21.11,33.52,26.57,35.75c5.46,2.24,23.59,2.98,28.31,1c4.72-1.99,14.9-16.14,14.9-16.14s-19.61-15.65-37.48-29.68
									c-2.29,4.04-7.15,12.94-8.46,18.01c-1.74,6.7,0-4.97,0.5-10.93c0.49-5.96-4.72,5.71-5.71,6.95c-1,1.25,0.74-8.69,0.24-9.68
									c-0.49-0.99-3.72,4.47-3.72,4.47s-21.6-17.64-23.34-18.13c-1.74-0.49,4.72,10.18,4.72,10.18s-8.2-5.46-8.94-4.71
									c-0.75,0.74,0.74,7.2,0.74,7.2S541.204,407.932,523.564,418.022z"/>
							</g>
						</g>
					</g>
					<g>
						<g>
							<g>
								<g>
									<polygon style="fill:#BA7E5D;" points="485.316,434.082 496.726,436.642 503.096,428.362 507.946,422.072 497.716,414.792 
										494.756,419.392 									"/>
									<path style="fill:#824A2F;" d="M494.756,419.392c2.19,3.8,5.59,6.89,8.34,8.97l4.85-6.29l-10.23-7.28L494.756,419.392z"/>
								</g>
								<g>
									<path style="fill:#223D52;" d="M455.933,451.482h44.82c0.04-1.45,0.05-2.92,0.05-4.36c-0.01-5.44-0.26-10.5-0.4-12.84
										c-2.06-0.43-5.46-1.45-9.06-3.86c-1.11-0.74-2.23-1.61-3.35-2.64c0,0-4.42,4.33-10.03,7.8c-2.01,1.26-4.17,2.4-6.34,3.18
										c-8.19,2.96-11.5,2.61-13.77,4.71c-0.89,0.82-1.38,2.24-1.64,3.65C455.803,449.302,455.933,451.482,455.933,451.482z"/>
									<polygon style="fill:#9C7E35;" points="490.68,436.795 482.708,430.283 477.207,434.213 485.403,440.725 									"/>
									<path style="fill:#9C7E35;" d="M455.933,451.482h44.82c0.04-1.45,0.05-2.92,0.05-4.36h-44.59
										C455.803,449.302,455.933,451.482,455.933,451.482z"/>
								</g>
							</g>
							<g>
								<path style="fill:#223D52;" d="M493.676,416.102c0.64,0.69,1.28,1.33,1.93,1.92c7.74,7.06,16.19,7.27,16.19,7.27
									c8.69-9.69,35.26-44.45,35.26-44.45s21.11,33.52,26.57,35.75c5.46,2.24,23.59,2.98,28.31,1c4.72-1.99,14.9-16.14,14.9-16.14
									s-12.28-9.8-26.27-20.85c-3.68-2.91-7.48-5.9-11.21-8.83c-14.35-11.27-27.58-21.51-28.57-21.72
									c-2.24-0.5-17.14-0.75-20.36,3.47c-0.7,0.92-2.83,4.38-5.73,9.25C514.226,380.332,493.676,416.102,493.676,416.102z"/>
								<path style="fill:#172C3A;" d="M495.606,418.022c7.74,7.06,16.19,7.27,16.19,7.27c8.69-9.69,35.26-44.45,35.26-44.45
									s21.11,33.52,26.57,35.75c5.46,2.24,23.59,2.98,28.31,1c4.72-1.99,14.9-16.14,14.9-16.14s-19.61-15.65-37.48-29.68
									c-2.29,4.04-7.15,12.94-8.46,18.01c-1.74,6.7,0-4.97,0.5-10.93c0.49-5.96-4.72,5.71-5.71,6.95c-1,1.25,0.74-8.69,0.24-9.68
									c-0.49-0.99-3.72,4.47-3.72,4.47s-21.6-17.64-23.34-18.13c-1.74-0.49,4.72,10.18,4.72,10.18s-8.2-5.46-8.94-4.71
									c-0.75,0.74,0.74,7.2,0.74,7.2S513.246,407.932,495.606,418.022z"/>
								<path style="fill:#172C3A;" d="M524.696,362.772c3.92,0.95,6.72-4.8,6.72-4.8s4.58,2.29,6.48,3.05
									c1.91,0.76,7.83-3.24,7.83-3.24s26.71,17.93,31.86,21.37c5.15,3.43,10.31,6.29,13.17,2.29l-0.19-0.84
									c-3.68-2.91-7.48-5.9-11.21-8.83c-14.35-11.27-27.58-21.51-28.57-21.72c-2.24-0.5-17.14-0.75-20.36,3.47
									C529.726,354.442,527.596,357.902,524.696,362.772z"/>
							</g>
						</g>
					</g>
					<g>
						<g>
							<path style="fill:#9F4C06;" d="M635.055,408.152c0,0-22.34,2.07-39.22-2.6c-8.48-2.36-13.36-8.12-16.1-13.26
								c-1.39-2.59-2.24-5.03-2.74-6.8c-0.48-1.71-0.64-2.8-0.64-2.8s0.72-0.62,1.93-1.75c4.24-3.94,14.43-14.08,19.89-25
								c0.41-0.83,0.82-1.66,1.22-2.48c6.25-12.83,10.82-24.56,16.79-29.79c0.11-0.11,0.23-0.21,0.35-0.31
								c4.91-4.05,20.07-3.29,20.07-3.29c7.43,0.35,12.36,3.46,14.95,8.9c0.68,1.41,1.2,2.97,1.56,4.69
								C654.865,341.992,652.205,383.732,635.055,408.152z"/>
							<path style="fill:#823A04;" d="M635.055,408.152c0,0-22.34,2.07-39.22-2.6c-8.48-2.36-13.36-8.12-16.1-13.26
								c-1.39-2.59-2.24-5.03-2.74-6.8c2.14-0.26,4.16-0.87,6.05-1.8c10.08-4.88,16.93-18.24,23.35-30.44
								c4.5-8.56,8.8-16.55,13.84-20.65c1.29-1.05,2.6-1.96,3.91-2.72c10.2-6.06,20.77-4.23,27.41-0.91
								c0.68,1.41,1.2,2.97,1.56,4.69C654.865,341.992,652.205,383.732,635.055,408.152z"/>
							<path style="fill:#FFFFFF;stroke:#231F20;stroke-miterlimit:10;" d="M612.885,353.142c0,0-11.41,32.45-15.21,35.49
								c-1.88,1.5-8.45-1.5-14.63-4.94c-1.65-0.91-3.27-1.85-4.76-2.75c4.24-3.94,14.43-14.08,19.89-25
								c0.41-0.83,0.82-1.66,1.22-2.48c2.47-0.09,4.9-0.16,7-0.21C610.165,353.162,612.885,353.142,612.885,353.142z"/>
						</g>
						<path style="fill:#683109;" d="M623.855,345.682c-5.09,25.77-29.17,49.52-32.73,49.52c-2.42,0-7.91-1.81-11.39-2.91
							c-1.39-2.59-2.24-5.03-2.74-6.8c-0.48-1.71-0.64-2.8-0.64-2.8s0.72-0.62,1.93-1.75c4.24-3.94,14.43-14.08,19.89-25
							c0.41-0.83,0.82-1.66,1.22-2.48c6.25-12.83,10.82-24.56,16.79-29.79c2.98,0.06,6.44,1.28,7.96,6.21
							C625.185,333.202,625.335,338.212,623.855,345.682z"/>
					</g>
					<g>
						<g>
							<path style="fill:#BA7E5D;" d="M622.679,306.249c1.005,2.058,2.305,3.437,3.748,4.268c5.536,3.221,13.262-1.571,15.502-6.905
								c2.586-6.131,2.583-20.542-7.089-23.083l-0.01,0c-0.928-0.237-1.937-0.374-3.037-0.383
								C622.873,280.08,617.802,296.293,622.679,306.249z"/>
							<path style="fill:#BA7E5D;" d="M626.427,310.517c5.536,3.221,13.262-1.571,15.502-6.905
								c2.586-6.131,2.583-20.542-7.089-23.083c0.898,5.657,2.227,17.937-1.98,24.136
								C630.798,307.71,628.505,309.493,626.427,310.517z"/>
							<g>
								<path style="fill:#51222F;" d="M651.507,287.643c-0.339,2.538-1.62,5.358-2.805,7.349c-2.997,4.988-5.09,9.352-5.09,9.352
									l-2.715,0.69l-0.272-7.852l-2.898-0.332l-6.324,0.533c0,0,2.001-1.525,0.363-5.777c-1.639-4.242,2.677-6.29,2.677-6.29
									c-4.805-1.996-11.046,2.058-14.992-3.802c-0.237-0.352-0.435-0.693-0.602-1.035c-3.016-5.962,2.841-10.859,2.841-10.859
									c1.978,5.645,6.951,5.272,16.754,4.935c9.793-0.327,6.518,7.059,6.518,7.059
									C650.665,281.187,651.973,284.147,651.507,287.643z"/>
								<path style="fill:#3D1A25;" d="M651.507,287.643c-0.339,2.538-1.62,5.358-2.805,7.349c-2.997,4.988-5.09,9.352-5.09,9.352
									l-2.715,0.69l-0.272-7.852l-2.898-0.332l-6.324,0.533c0,0,2.001-1.525,0.363-5.777c-1.639-4.242,2.677-6.29,2.677-6.29
									c-4.805-1.996-11.046,2.058-14.992-3.802c-0.237-0.352-0.435-0.693-0.602-1.035c3.374,2.185,8.673,2.295,14.289,1.477
									c9.461-1.37,7.44,5.445,7.44,5.445S645.038,290.135,651.507,287.643z"/>
							</g>
							<g>
								<g>
									<g>
										<path style="fill:#2D1A12;" d="M623.553,295.729c-0.001-1.351-0.299-2.579-0.815-3.51
											c-0.259-0.465-0.575-0.859-0.953-1.147c-0.354-0.271-0.775-0.441-1.223-0.463v0l-0.085-0.008h-0.013h-0.004v0
											c-0.481,0-0.933,0.178-1.313,0.465c-0.573,0.433-1.011,1.1-1.323,1.905c-0.308,0.802-0.486,1.749-0.496,2.765h0l0,0.011
											c0,0.001,0,0.002,0,0.003l0,0l0,0.067c0.001,1.351,0.299,2.579,0.815,3.51c0.259,0.465,0.575,0.859,0.953,1.147
											c0.376,0.288,0.826,0.468,1.306,0.471l0.045,0l0.041-0.007l0,0c0.455-0.016,0.883-0.186,1.245-0.459
											c0.573-0.433,1.012-1.1,1.323-1.905c0.31-0.806,0.489-1.757,0.497-2.779v-0.008v-0.007L623.553,295.729z M621.833,298.839
											c-0.212,0.374-0.456,0.661-0.7,0.843c-0.246,0.183-0.479,0.264-0.716,0.265v0l-0.007,0v-0.001
											c-0.236-0.003-0.466-0.085-0.708-0.267c-0.36-0.271-0.716-0.78-0.968-1.455c-0.253-0.674-0.407-1.507-0.406-2.407l0-0.046
											l0-0.009v-0.005c0.007-1.211,0.295-2.301,0.721-3.049c0.212-0.374,0.456-0.661,0.699-0.843
											c0.245-0.183,0.477-0.263,0.714-0.265h0.01c0.236,0.003,0.466,0.085,0.707,0.267c0.36,0.271,0.716,0.78,0.968,1.454
											c0.253,0.674,0.407,1.506,0.407,2.407l0,0.061C622.546,297.001,622.258,298.091,621.833,298.839z"/>
									</g>
									<g>
										<polyline style="fill:#2D1A12;" points="622.653,293.767 637.137,293.874 637.144,292.875 622.66,292.767 										"/>
									</g>
								</g>
							</g>
						</g>
						<path style="fill:#BA7E5D;" d="M636.03,294.43c0,0,1.131-3.633,4.657-2.945c3.526,0.688,2.784,11.387-5.48,9.781
							L636.03,294.43z"/>
					</g>
					<path style="fill:#9C7E35;" d="M706.86,327.782l-13.69,37.93l-13.99,38.74c-2.13,5.88-5.97,10.77-10.85,14.2
						c-4.88,3.42-10.8,5.38-17.04,5.38h-64.17c7.99,0,15.42-3.2,20.85-8.57c3.07-3.03,5.51-6.76,7.04-11.01l4.31-11.93l23.37-64.74
						H706.86z"/>
					<path style="fill:#6D551F;" d="M693.17,365.712l-13.99,38.74c-2.13,5.88-5.97,10.77-10.85,14.2
						c-4.88,3.42-10.8,5.38-17.04,5.38h-64.17c7.99,0,15.42-3.2,20.85-8.57c2.81,1.32,5.61,2.68,8.68,3.11
						c6.93,0.97,13.92-3.27,17.49-9.29c2.06-3.48,3.98-8.11,8.02-8.35c3.38-0.21,6.04,3.02,9.38,3.54c3.22,0.51,6.41-1.71,7.93-4.6
						c1.52-2.88,1.69-6.28,1.54-9.54c-0.11-2.3-0.32-4.78,0.88-6.75c1.46-2.43,4.49-3.27,7.2-4.1
						C678.01,376.762,686.26,371.972,693.17,365.712z"/>
					<g>
						<path style="fill:#FFFFFF;stroke:#231F20;stroke-miterlimit:10;" d="M554.919,387.913l66.774,61.078
							c1.102,1.008,1.179,2.72,0.17,3.822c-1.008,1.103-2.72,1.179-3.822,0.17l-66.774-61.078c-1.103-1.008-1.179-2.72-0.17-3.822
							C552.105,386.981,553.816,386.905,554.919,387.913"/>
						<path style="fill:#51222F;" d="M554.919,387.913l66.774,61.078c1.102,1.008,1.179,2.72,0.17,3.822
							c-1.008,1.103-2.72,1.179-3.822,0.17l-66.774-61.078c-1.103-1.008-1.179-2.72-0.17-3.822
							C552.105,386.981,553.816,386.905,554.919,387.913z"/>
						<path style="fill:#51222F;" d="M621.693,391.905l-66.774,61.078c-1.102,1.008-2.814,0.932-3.822-0.17
							c-1.008-1.102-0.932-2.814,0.17-3.822l66.774-61.078c1.102-1.008,2.814-0.932,3.822,0.17
							C622.872,389.186,622.796,390.897,621.693,391.905z"/>
					</g>
					<g>
						<g>
							<polygon style="fill:#223D52;" points="519.284,323.733 522.466,352.672 535.593,352.672 541.162,324.429 							"/>
							<path style="fill:#0D1B23;" d="M519.284,323.733c0,0,8.835,5.214,21.878,0.696
								C541.162,324.429,531.089,317.922,519.284,323.733z"/>
						</g>
						<g>
							<path style="fill:#BA7E5D;" d="M549.255,347.262l-1.64,15.05l-10.39-5.34l-15.77-2.03c-0.76-0.1-1.43-0.53-1.82-1.19
								c-0.58-0.95-0.9-2.05-0.92-3.15c0-0.46,0.04-0.92,0.14-1.38l0.04-0.18l-0.66-2.16c-0.2-0.64-0.22-1.33-0.05-1.99l0.43-1.73
								l-0.6-1.98c-0.23-0.76-0.21-1.57,0.05-2.32l0.55-1.58l-0.96-1.33c-0.46-0.64-0.71-1.41-0.71-2.19c0-0.11,0.01-0.23,0.02-0.34
								c0.09-1.03,0.61-1.98,1.43-2.61l1.18-0.92c0,0,5.42,4.25,6.1,4.53c0.68,0.27,7.93,1.65,7.93,1.65l5.47-0.31
								c0,0,2.29,1.59,2.68,4.18c0.07,0.41,0.8,4.72,0.8,4.72l2.86,1.11L549.255,347.262z"/>
							<path style="fill:#824A2F;" d="M549.255,347.262l-1.64,15.05l-10.39-5.34l-15.77-2.03c-0.76-0.1-1.43-0.53-1.82-1.19
								c-0.58-0.95-0.9-2.05-0.92-3.15c4.69,2.92,14.92,2.31,21.87-0.68c0,0,1.96-2.7,4.83-4.15L549.255,347.262z"/>
						</g>
						<g>
							<path style="fill:#9F4C06;" d="M624.515,344.452c-6.48,12.54-23.56,40.85-35.23,42.8c-11.67,1.94-47.33-25.29-47.33-25.29
								c-0.68-3.3-0.39-6.11,0.34-8.42c1.58-5.12,5.28-7.79,5.28-7.79l40.2,14.26c15.35-22.04,24.89-38.66,32.24-38.66
								c4.55,0,7.48,3.42,7.97,8.67C628.345,334.002,627.315,339.042,624.515,344.452z"/>
							<path style="fill:#823A04;" d="M624.515,344.452c-6.48,12.54-23.56,40.85-35.23,42.8c-11.67,1.94-47.33-25.29-47.33-25.29
								c-0.68-3.3-0.39-6.11,0.34-8.42c8,5.2,31.2,20.2,35.26,22.15c4.92,2.38,5.26-5.76,6.11-8.47c0.85-2.72,3.56,9.15,3.56,9.15
								s-0.51-10.34,0.34-11.19c0.85-0.85,4.41,8.82,4.41,8.82s27.66-24.47,36.01-43.98
								C628.345,334.002,627.315,339.042,624.515,344.452z"/>
						</g>
					</g>
				</g>
			</g>
			<g>
				<g>
					<path style="fill:#9C7E35;" d="M617.41,512.006c0,0-12.6-8.723-13.085-19.869c-0.485-11.146,15.023-5.815,15.023-5.815
						s-0.969-13.085,6.3-12.6c7.269,0.485,17.931,9.208,19.869,4.362c1.939-4.846-14.054-7.269-10.661-16.477
						c3.392-9.208,11.146-6.3,11.146-6.3s-0.485-15.508,8.723-14.538c9.208,0.969,11.146,25.685,16.961,24.715
						c5.815-0.969-0.969-15.992,3.877-19.384c4.846-3.392,12.6,2.908,12.6,2.908s-2.908-14.538,6.785-15.992
						c9.692-1.454,8.723,18.9,19.385,17.931s-1.454-11.146-7.754-20.354c-6.3-9.208,0-29.561,10.661-26.169
						c10.661,3.392,8.723,15.992,8.723,15.992s6.785-7.754,11.631,4.846c4.846,12.6,15.992,9.692,10.177,0.485
						c-5.815-9.208-8.723-22.777-0.969-23.261c0,0-4.362-25.685,8.238-31.984c12.6-6.3,11.631,16.477,11.631,16.477
						s14.538-16.961,28.108-4.362c13.569,12.6-3.877,35.861-3.877,35.861s9.208-7.269,17.446-0.969
						c8.238,6.3,2.908,14.054-5.331,22.292c-8.238,8.238,3.392,13.569,15.023,4.362c11.631-9.208,15.508,14.054-1.939,19.385
						c-17.446,5.331-6.3,11.146,4.362,8.723s6.785,10.661,6.785,10.661s12.115-2.908,15.992,4.846
						c3.877,7.754-1.454,16.477-1.454,16.477s6.785-4.362,12.6,1.454c5.815,5.815,4.361,14.538,4.361,14.538H611.594
						C611.594,520.244,611.11,515.883,617.41,512.006z"/>
					<g>
						<path style="fill:#B56729;" d="M279.821,521.761c0,0-13.222-7.345-12.732-18.119c0.49-10.773,29.871-3.643,29.871-3.643
							s-7.835-14.965-1.469-20.842c6.366-5.876,18.608,3.918,18.608,3.918s-5.876-26.443,5.387-29.871
							c11.263-3.428,8.325,24.485,18.608,24.485s-7.835-23.995,1.469-38.686c9.304-14.691,22.526-0.979,23.016,21.057
							c0.49,22.036,9.304,9.794,9.794-2.449c0.49-12.242,15.67-1.469,12.732,10.773c0,0,2.938-2.938,6.366,2.938
							c3.428,5.876-6.366,18.119,1.469,18.119c7.835,0,6.366-21.547,16.65-27.423c10.284-5.876,19.098,2.448,12.242,18.119
							c0,0,8.815-5.876,15.181,1.959c6.366,7.835-0.49,13.222-0.49,13.222s11.263,0.979,9.304,11.753c0,0,14.691-3.428,21.547,3.917
							c6.856,7.345-2.938,16.16-2.938,16.16H266.11C266.11,527.148,267.579,519.803,279.821,521.761z"/>
					</g>
					<path style="fill:#9C7E35;" d="M137.811,502.664c0,0-3.428-16.65-19.588-12.242c0,0,0-6.366-7.345-7.835
						c-7.345-1.469-10.284,21.117-17.139,17.414c-6.856-3.703,6.366-12.027,3.918-19.863c-2.448-7.835-11.263-2.938-11.263-2.938
						s8.815-29.381-8.815-30.851c-17.629-1.469-9.794,25.954-9.794,25.954s-9.304-0.49-9.304,4.897
						c0,5.387,1.469,17.139-8.814,11.753c-10.284-5.386,1.959-13.222,6.856-20.077c4.897-6.856-1.959-12.732-11.753-6.366
						c0,0,5.387-3.918,0-7.835c-5.387-3.917-10.284,4.407-18.118,10.284c-7.835,5.876-9.304-9.304,4.897-13.711
						c14.201-4.407,18.608-16.16,8.814-17.629c0,0,7.835-10.284,0.979-15.181c-6.856-4.897-16.16,3.428-19.098,13.222
						c-2.938,9.794-15.67,6.856-10.773-2.938c4.897-9.794,13.711-11.753,9.794-18.119c-3.917-6.366-10.283,0.979-10.283,0.979
						s9.866-19.588-7.799-26.933c-17.665-7.345-20.114,19.098-20.114,19.098s-18.119-13.222-27.423-3.428
						c-9.304,9.794,2.938,22.526,6.366,28.892c3.428,6.366-6.366,15.67-14.201,3.428c-7.835-12.242-16.649,2.449-10.283,7.835
						c6.366,5.386,6.856,15.18,6.856,15.18s-12.732-13.222-21.546-6.856c-8.814,6.366,8.814,21.547,8.814,21.547
						s-14.691-4.897-23.016,6.366c-8.325,11.263,1.469,13.712,8.814,18.608c7.345,4.897,6.366,17.139-11.263,14.691
						c-17.629-2.449-1.469,15.18-1.469,15.18s-12.189,2.349-13.626,9.794h35.172h214.975
						C141.239,534.983,158.378,519.803,137.811,502.664z"/>
				</g>
			</g>
		</g>
	</g>
</g>
</svg>
